<?xml version="1.0" encoding="UTF-8" standalone="no"?> <!-- Created with Vectornator for iOS (http://vectornator.io/) --><!DOCTYPE svg PUBLIC "-//W3C//DTD SVG 1.1//EN" "http://www.w3.org/Graphics/SVG/1.1/DTD/svg11.dtd">
<svg height="100%" style="fill-rule:nonzero;clip-rule:evenodd;stroke-linecap:round;stroke-linejoin:round;" xmlns:xlink="http://www.w3.org/1999/xlink" xmlns="http://www.w3.org/2000/svg" xml:space="preserve" width="100%" xmlns:vectornator="http://vectornator.io" version="1.1" viewBox="0 0 841.995 595.35">
<metadata>
<vectornator:setting key="DimensionsVisible" value="1"/>
<vectornator:setting key="PencilOnly" value="0"/>
<vectornator:setting key="SnapToPoints" value="0"/>
<vectornator:setting key="OutlineMode" value="0"/>
<vectornator:setting key="CMYKEnabledKey" value="0"/>
<vectornator:setting key="RulersVisible" value="1"/>
<vectornator:setting key="SnapToEdges" value="0"/>
<vectornator:setting key="GuidesVisible" value="1"/>
<vectornator:setting key="DisplayWhiteBackground" value="1"/>
<vectornator:setting key="doHistoryDisabled" value="0"/>
<vectornator:setting key="SnapToGuides" value="1"/>
<vectornator:setting key="TimeLapseWatermarkDisabled" value="0"/>
<vectornator:setting key="Units" value="Millimeters"/>
<vectornator:setting key="DynamicGuides" value="0"/>
<vectornator:setting key="IsolateActiveLayer" value="0"/>
<vectornator:setting key="SnapToGrid" value="1"/>
</metadata>
<defs/>
<g id="Calque 1" vectornator:layerName="Calque 1">
<g opacity="1">
<g opacity="1">
<path d="M243.582+437.468L243.582+334.089" fill="#ffffff"/>
<g>
<path stroke-linecap="round" stroke-width="1" stroke="#000000" d="M243.582+337.591C243.582+345.497+243.582+437.468+243.582+437.468" fill="none" stroke-linejoin="round"/>
<path d="M243.582+338.466L247.082+341.091L243.582+334.091L240.082+341.091L243.582+338.466Z" fill="#000000"/>
</g>
</g>
<g opacity="1">
<path d="M243.582+437.468L335.741+489.158" fill="#ffffff"/>
<g>
<path stroke-linecap="round" stroke-width="1" stroke="#000000" d="M332.684+487.444C325.682+483.516+243.582+437.468+243.582+437.468" fill="none" stroke-linejoin="round"/>
<path d="M331.921+487.016L327.919+488.784L335.736+489.156L331.343+482.679L331.921+487.016Z" fill="#000000"/>
</g>
</g>
<g opacity="1">
<path d="M243.582+437.468L151.424+489.158" fill="#ffffff"/>
<g>
<path stroke-linecap="round" stroke-width="1" stroke="#000000" d="M154.481+487.444C161.483+483.516+243.582+437.468+243.582+437.468" fill="none" stroke-linejoin="round"/>
<path d="M155.244+487.016L155.821+482.679L151.428+489.156L159.246+488.784L155.244+487.016Z" fill="#000000"/>
</g>
</g>
<g opacity="1">
<path d="M204.539+429.796C205.305+429.796+205.831+429.377+206.117+428.538C206.404+427.699+206.547+426.486+206.547+424.897C206.547+423.632+206.461+422.621+206.289+421.866C205.966+420.46+205.362+419.757+204.477+419.757C203.591+419.757+202.985+420.481+202.657+421.929C202.485+422.699+202.399+423.715+202.399+424.976C202.399+426.158+202.487+427.103+202.664+427.811C202.998+429.134+203.623+429.796+204.539+429.796ZM204.516+419.335C205.714+419.335+206.644+419.962+207.305+421.218C207.831+422.233+208.094+423.4+208.094+424.718C208.094+425.754+207.933+426.731+207.61+427.647C207+429.371+205.946+430.233+204.446+430.233C203.42+430.233+202.576+429.767+201.914+428.835C201.206+427.84+200.852+426.489+200.852+424.78C200.852+423.436+201.089+422.28+201.563+421.311C202.203+419.994+203.188+419.335+204.516+419.335Z" opacity="1" fill="#000000"/>
</g>
</g>
<g opacity="1">
<path d="M334.293+494.82L334.293+495.039C334.095+495.044+333.927+495.072+333.789+495.121C333.651+495.171+333.582+495.273+333.582+495.43C333.582+495.529+333.72+495.807+333.996+496.266C334.142+496.505+334.327+496.799+334.551+497.148C334.858+496.727+335.087+496.396+335.238+496.156C335.493+495.771+335.621+495.521+335.621+495.406C335.621+495.271+335.566+495.18+335.457+495.133C335.347+495.086+335.194+495.055+334.996+495.039L334.996+494.82L337.512+494.82L337.512+495.039C337.246+495.06+336.999+495.132+336.769+495.254C336.54+495.376+336.355+495.539+336.215+495.742L334.879+497.672L336.941+500.797C337.207+501.203+337.432+501.466+337.617+501.586C337.802+501.706+338.014+501.771+338.254+501.781L338.254+502L335.027+502L335.027+501.781L335.254+501.766C335.374+501.755+335.474+501.719+335.554+501.656C335.635+501.594+335.676+501.516+335.676+501.422C335.676+501.323+335.577+501.104+335.379+500.766C335.285+500.599+335.144+500.372+334.957+500.086C334.868+499.945+334.737+499.75+334.562+499.5C334.388+499.25+334.241+499.036+334.121+498.859L332.863+500.82C332.712+501.055+332.618+501.211+332.582+501.289C332.545+501.367+332.527+501.432+332.527+501.484C332.527+501.583+332.568+501.648+332.648+501.68C332.729+501.711+332.905+501.745+333.176+501.781L333.176+502L330.863+502L330.863+501.781C331.144+501.724+331.353+501.651+331.488+501.562C331.624+501.474+331.803+501.268+332.027+500.945L333.847+498.297L332.347+496.023C332.045+495.57+331.837+495.302+331.722+495.219C331.608+495.135+331.358+495.076+330.972+495.039L330.972+494.82L334.293+494.82Z" opacity="1" fill="#000000"/>
</g>
<g opacity="1">
<path d="M142.584+487.922L142.584+488.109L138.248+494.609L140.459+494.609C141.225+494.609+141.709+494.511+141.912+494.316C142.116+494.121+142.316+493.643+142.514+492.882L142.787+492.937L142.569+495.101L136.514+495.101L136.514+494.922L140.787+488.398L138.694+488.398C138.131+488.398+137.764+488.494+137.592+488.687C137.42+488.88+137.3+489.255+137.233+489.812L136.959+489.812L136.991+487.922L142.584+487.922Z" opacity="1" fill="#000000"/>
</g>
<g opacity="1">
<path d="M226.885+334.82L230.182+334.82L230.182+335.062C229.922+335.068+229.729+335.091+229.604+335.133C229.365+335.201+229.245+335.333+229.245+335.531C229.245+335.604+229.258+335.678+229.284+335.754C229.31+335.829+229.357+335.943+229.424+336.094L231.253+340.148L232.721+336.062C232.737+336.021+232.762+335.927+232.796+335.781C232.829+335.635+232.846+335.536+232.846+335.484C232.846+335.349+232.799+335.25+232.706+335.187C232.612+335.125+232.492+335.089+232.346+335.078L232.104+335.062L232.104+334.82L234.253+334.82L234.253+335.062C234.039+335.089+233.879+335.161+233.772+335.281C233.665+335.401+233.573+335.568+233.495+335.781L231.034+342.297C230.607+343.422+230.198+344.237+229.807+344.742C229.417+345.247+228.922+345.5+228.323+345.5C228.031+345.5+227.758+345.427+227.503+345.281C227.247+345.135+227.12+344.904+227.12+344.586C227.12+344.378+227.197+344.207+227.35+344.074C227.504+343.941+227.698+343.875+227.932+343.875C228.068+343.875+228.269+343.924+228.538+344.023C228.806+344.122+228.997+344.172+229.112+344.172C229.404+344.172+229.711+343.833+230.034+343.156C230.357+342.479+230.518+342.026+230.518+341.797C230.518+341.75+230.51+341.693+230.495+341.625C230.479+341.557+230.461+341.497+230.44+341.445L227.94+336.039C227.763+335.654+227.608+335.4+227.475+335.277C227.342+335.155+227.146+335.076+226.885+335.039L226.885+334.82Z" opacity="1" fill="#000000"/>
</g>
<path stroke="#000000" stroke-width="1" d="M243.548+436.827L496.984+230.069" fill="none" stroke-linecap="round" opacity="0.458441" stroke-linejoin="round" stroke-dasharray="0,0,4"/>
<path stroke="#000000" stroke-width="1" d="M335.707+359.293L335.707+307.603L404.826+346.371L404.826+398.06L335.707+359.293Z" fill="#ffffff" stroke-linecap="round" opacity="1" stroke-linejoin="round"/>
<path stroke="#000000" stroke-width="1" d="M243.548+436.827L496.984+75" fill="none" stroke-linecap="round" opacity="0.458441" stroke-linejoin="round" stroke-dasharray="0,0,4"/>
<path stroke="#000000" stroke-width="1" d="M243.548+436.827L692.82+339.909" fill="none" stroke-linecap="round" opacity="0.458441" stroke-linejoin="round" stroke-dasharray="0,0,4"/>
<g opacity="1">
<path d="M391.293+331.391L396.555+324.043L393.79+324.043C393.094+324.043+392.6+324.217+392.307+324.565C392.131+324.772+391.993+325.129+391.891+325.637L391.581+325.637L391.821+323.586L398.155+323.586L398.155+323.721L392.946+331.069L396.028+331.069C396.727+331.069+397.237+330.903+397.557+330.571C397.756+330.36+397.936+329.975+398.096+329.416L398.377+329.416L398.084+331.526L391.293+331.526L391.293+331.391Z" opacity="1" fill="#000000"/>
<path d="M398.846+328.807C398.846+328.03+399.093+327.372+399.587+326.835C400.082+326.298+400.717+326.03+401.495+326.03C402.268+326.03+402.909+326.284+403.416+326.791C403.924+327.299+404.178+327.975+404.178+328.819C404.178+329.596+403.932+330.272+403.44+330.846C402.948+331.42+402.311+331.707+401.53+331.707C400.78+331.707+400.145+331.432+399.625+330.881C399.106+330.33+398.846+329.639+398.846+328.807ZM401.331+326.381C401.022+326.381+400.754+326.483+400.528+326.686C400.137+327.041+399.942+327.655+399.942+328.526C399.942+329.221+400.099+329.869+400.414+330.471C400.728+331.073+401.165+331.373+401.723+331.373C402.161+331.373+402.498+331.172+402.734+330.77C402.97+330.367+403.088+329.84+403.088+329.188C403.088+328.512+402.938+327.875+402.637+327.278C402.336+326.68+401.901+326.381+401.331+326.381Z" opacity="1" fill="#000000"/>
<path d="M404.758+331.362C405.036+331.326+405.23+331.257+405.341+331.154C405.453+331.05+405.508+330.819+405.508+330.459L405.508+327.489C405.508+327.239+405.485+327.063+405.438+326.961C405.364+326.813+405.211+326.739+404.981+326.739C404.946+326.739+404.91+326.741+404.873+326.744C404.835+326.748+404.79+326.754+404.735+326.762L404.735+326.557C404.895+326.51+405.274+326.389+405.872+326.194L406.422+326.012C406.45+326.012+406.466+326.022+406.472+326.041C406.478+326.061+406.481+326.088+406.481+326.123L406.481+326.985C406.84+326.649+407.122+326.418+407.325+326.293C407.629+326.102+407.946+326.006+408.274+326.006C408.54+326.006+408.782+326.082+409+326.235C409.422+326.532+409.633+327.061+409.633+327.823L409.633+330.559C409.633+330.84+409.69+331.043+409.803+331.168C409.916+331.293+410.106+331.358+410.372+331.362L410.372+331.526L407.87+331.526L407.87+331.362C408.155+331.323+408.354+331.243+408.467+331.124C408.581+331.005+408.637+330.746+408.637+330.348L408.637+327.846C408.637+327.51+408.575+327.232+408.45+327.011C408.325+326.79+408.094+326.68+407.758+326.68C407.528+326.68+407.293+326.758+407.055+326.914C406.922+327.004+406.75+327.153+406.54+327.36L406.54+330.641C406.54+330.922+406.602+331.111+406.727+331.206C406.852+331.302+407.049+331.354+407.319+331.362L407.319+331.526L404.758+331.526L404.758+331.362Z" opacity="1" fill="#000000"/>
<path d="M413.29+326.03C413.84+326.03+414.323+326.22+414.737+326.601C415.151+326.982+415.358+327.522+415.358+328.221L411.637+328.221C411.676+329.127+411.881+329.787+412.252+330.201C412.624+330.616+413.063+330.823+413.571+330.823C413.981+330.823+414.327+330.715+414.608+330.5C414.889+330.285+415.149+329.981+415.387+329.586L415.592+329.657C415.432+330.153+415.132+330.612+414.693+331.034C414.253+331.455+413.715+331.666+413.079+331.666C412.344+331.666+411.777+331.389+411.376+330.834C410.976+330.28+410.776+329.641+410.776+328.918C410.776+328.133+411.008+327.455+411.473+326.885C411.938+326.315+412.543+326.03+413.29+326.03ZM412.95+326.457C412.504+326.457+412.165+326.655+411.93+327.049C411.805+327.26+411.715+327.526+411.661+327.846L414.133+327.846C414.09+327.455+414.016+327.164+413.911+326.973C413.719+326.629+413.399+326.457+412.95+326.457Z" opacity="1" fill="#000000"/>
<path d="M418.92+331.332C419.28+331.301+419.518+331.238+419.635+331.142C419.752+331.046+419.811+330.842+419.811+330.53L419.811+327.887C419.811+327.5+419.775+327.224+419.703+327.058C419.63+326.892+419.499+326.809+419.307+326.809C419.268+326.809+419.216+326.814+419.152+326.824C419.087+326.833+419.02+326.846+418.95+326.862L418.95+326.668C419.172+326.59+419.401+326.51+419.635+326.428C419.87+326.346+420.032+326.287+420.122+326.252C420.317+326.178+420.518+326.094+420.725+326C420.752+326+420.769+326.01+420.775+326.03C420.781+326.049+420.784+326.09+420.784+326.153L420.784+327.114C421.034+326.766+421.275+326.494+421.507+326.299C421.74+326.104+421.981+326.006+422.231+326.006C422.43+326.006+422.592+326.066+422.717+326.185C422.842+326.304+422.905+326.453+422.905+326.633C422.905+326.793+422.857+326.928+422.761+327.037C422.666+327.147+422.545+327.201+422.401+327.201C422.252+327.201+422.103+327.133+421.953+326.996C421.802+326.86+421.684+326.791+421.598+326.791C421.461+326.791+421.293+326.902+421.094+327.122C420.895+327.343+420.795+327.571+420.795+327.805L420.795+330.448C420.795+330.784+420.874+331.017+421.03+331.148C421.186+331.279+421.446+331.34+421.809+331.332L421.809+331.526L418.92+331.526L418.92+331.332Z" opacity="1" fill="#000000"/>
<path d="M425.612+326.03C426.163+326.03+426.645+326.22+427.059+326.601C427.473+326.982+427.68+327.522+427.68+328.221L423.959+328.221C423.999+329.127+424.204+329.787+424.575+330.201C424.946+330.616+425.385+330.823+425.893+330.823C426.303+330.823+426.649+330.715+426.93+330.5C427.211+330.285+427.471+329.981+427.709+329.586L427.915+329.657C427.754+330.153+427.455+330.612+427.015+331.034C426.576+331.455+426.038+331.666+425.401+331.666C424.666+331.666+424.099+331.389+423.699+330.834C423.298+330.28+423.098+329.641+423.098+328.918C423.098+328.133+423.331+327.455+423.795+326.885C424.26+326.315+424.866+326.03+425.612+326.03ZM425.272+326.457C424.827+326.457+424.487+326.655+424.252+327.049C424.127+327.26+424.038+327.526+423.983+327.846L426.456+327.846C426.413+327.455+426.338+327.164+426.233+326.973C426.041+326.629+425.721+326.457+425.272+326.457Z" opacity="1" fill="#000000"/>
<path d="M428.407+331.362C428.684+331.326+428.878+331.257+428.99+331.154C429.101+331.05+429.157+330.819+429.157+330.459L429.157+327.489C429.157+327.239+429.133+327.063+429.086+326.961C429.012+326.813+428.86+326.739+428.629+326.739C428.594+326.739+428.558+326.741+428.521+326.744C428.484+326.748+428.438+326.754+428.383+326.762L428.383+326.557C428.543+326.51+428.922+326.389+429.52+326.194L430.071+326.012C430.098+326.012+430.115+326.022+430.121+326.041C430.126+326.061+430.129+326.088+430.129+326.123L430.129+326.985C430.489+326.649+430.77+326.418+430.973+326.293C431.278+326.102+431.594+326.006+431.922+326.006C432.188+326.006+432.43+326.082+432.649+326.235C433.071+326.532+433.282+327.061+433.282+327.823L433.282+330.559C433.282+330.84+433.338+331.043+433.452+331.168C433.565+331.293+433.754+331.358+434.02+331.362L434.02+331.526L431.518+331.526L431.518+331.362C431.803+331.323+432.002+331.243+432.116+331.124C432.229+331.005+432.286+330.746+432.286+330.348L432.286+327.846C432.286+327.51+432.223+327.232+432.098+327.011C431.973+326.79+431.743+326.68+431.407+326.68C431.176+326.68+430.942+326.758+430.704+326.914C430.571+327.004+430.399+327.153+430.188+327.36L430.188+330.641C430.188+330.922+430.25+331.111+430.375+331.206C430.5+331.302+430.698+331.354+430.967+331.362L430.967+331.526L428.407+331.526L428.407+331.362Z" opacity="1" fill="#000000"/>
<path d="M437.032+325.989C437.317+325.989+437.579+326.051+437.817+326.176C437.973+326.258+438.124+326.371+438.268+326.516L438.268+324.653C438.268+324.414+438.242+324.25+438.189+324.16C438.136+324.071+438.01+324.026+437.811+324.026C437.764+324.026+437.723+324.028+437.688+324.032C437.653+324.035+437.575+324.043+437.454+324.055L437.454+323.862L437.934+323.739C438.11+323.692+438.286+323.643+438.461+323.592C438.637+323.541+438.791+323.492+438.924+323.446C438.987+323.426+439.09+323.389+439.235+323.334L439.27+323.346L439.258+323.961C439.254+324.184+439.25+324.413+439.247+324.65C439.243+324.886+439.241+325.119+439.241+325.35L439.229+330.137C439.229+330.391+439.26+330.569+439.323+330.67C439.385+330.772+439.551+330.823+439.821+330.823C439.864+330.823+439.907+330.822+439.95+330.82C439.993+330.818+440.036+330.813+440.079+330.805L440.079+330.998C440.055+331.006+439.772+331.104+439.229+331.291L438.309+331.637L438.268+331.584L438.268+330.864C438.049+331.102+437.86+331.272+437.7+331.373C437.415+331.549+437.084+331.637+436.709+331.637C436.045+331.637+435.507+331.38+435.095+330.867C434.683+330.353+434.477+329.758+434.477+329.082C434.477+328.235+434.724+327.507+435.218+326.9C435.712+326.292+436.317+325.989+437.032+325.989ZM437.249+331.004C437.553+331.004+437.799+330.914+437.987+330.735C438.174+330.555+438.268+330.385+438.268+330.225L438.268+327.711C438.268+327.203+438.132+326.845+437.861+326.636C437.589+326.427+437.325+326.323+437.067+326.323C436.575+326.323+436.192+326.54+435.918+326.976C435.645+327.411+435.508+327.948+435.508+328.584C435.508+329.213+435.654+329.774+435.945+330.266C436.236+330.758+436.67+331.004+437.249+331.004Z" opacity="1" fill="#000000"/>
<path d="M442.047+326.1L442.047+329.85C442.047+330.116+442.084+330.328+442.159+330.489C442.303+330.785+442.569+330.934+442.956+330.934C443.221+330.934+443.481+330.846+443.735+330.67C443.879+330.573+444.026+330.438+444.174+330.266L444.174+327.055C444.174+326.754+444.116+326.557+443.999+326.463C443.881+326.369+443.647+326.313+443.295+326.293L443.295+326.1L445.188+326.1L445.188+330.225C445.188+330.491+445.236+330.673+445.332+330.773C445.427+330.872+445.629+330.916+445.938+330.905L445.938+331.069C445.723+331.127+445.565+331.171+445.463+331.2C445.362+331.23+445.192+331.284+444.954+331.362C444.852+331.397+444.629+331.481+444.286+331.614C444.266+331.614+444.254+331.605+444.25+331.587C444.247+331.57+444.245+331.549+444.245+331.526L444.245+330.582C443.979+330.899+443.737+331.133+443.518+331.285C443.186+331.52+442.834+331.637+442.463+331.637C442.124+331.637+441.803+331.516+441.502+331.274C441.198+331.035+441.045+330.635+441.045+330.073L441.045+327.032C441.045+326.719+440.979+326.51+440.846+326.405C440.76+326.338+440.577+326.291+440.295+326.264L440.295+326.1L442.047+326.1Z" opacity="1" fill="#000000"/>
<path d="M448.938+326.03C449.489+326.03+449.971+326.22+450.385+326.601C450.799+326.982+451.006+327.522+451.006+328.221L447.286+328.221C447.325+329.127+447.53+329.787+447.901+330.201C448.272+330.616+448.711+330.823+449.219+330.823C449.629+330.823+449.975+330.715+450.256+330.5C450.538+330.285+450.797+329.981+451.036+329.586L451.241+329.657C451.081+330.153+450.781+330.612+450.341+331.034C449.902+331.455+449.364+331.666+448.727+331.666C447.993+331.666+447.425+331.389+447.025+330.834C446.624+330.28+446.424+329.641+446.424+328.918C446.424+328.133+446.657+327.455+447.122+326.885C447.586+326.315+448.192+326.03+448.938+326.03ZM448.598+326.457C448.153+326.457+447.813+326.655+447.579+327.049C447.454+327.26+447.364+327.526+447.309+327.846L449.782+327.846C449.739+327.455+449.665+327.164+449.559+326.973C449.368+326.629+449.047+326.457+448.598+326.457Z" opacity="1" fill="#000000"/>
</g>
<path stroke="#000000" stroke-width="1" d="M496.984+75L496.984+230.069L692.82+339.909L692.82+184.84L496.984+75Z" fill="#ffffff" stroke-linecap="round" opacity="1" stroke-linejoin="round"/>
<g opacity="1">
<path d="M440.967+441.231L446.229+433.884L443.463+433.884C442.768+433.884+442.274+434.058+441.981+434.405C441.805+434.612+441.666+434.97+441.565+435.477L441.254+435.477L441.494+433.427L447.828+433.427L447.828+433.561L442.619+440.909L445.701+440.909C446.401+440.909+446.91+440.743+447.231+440.411C447.43+440.2+447.61+439.815+447.77+439.257L448.051+439.257L447.758+441.366L440.967+441.366L440.967+441.231Z" opacity="1" fill="#000000"/>
<path d="M448.52+438.647C448.52+437.87+448.767+437.213+449.261+436.676C449.755+436.139+450.391+435.87+451.168+435.87C451.942+435.87+452.582+436.124+453.09+436.632C453.598+437.14+453.852+437.815+453.852+438.659C453.852+439.436+453.606+440.112+453.113+440.686C452.621+441.261+451.985+441.548+451.203+441.548C450.453+441.548+449.819+441.272+449.299+440.722C448.779+440.171+448.52+439.479+448.52+438.647ZM451.004+436.222C450.695+436.222+450.428+436.323+450.201+436.526C449.811+436.882+449.615+437.495+449.615+438.366C449.615+439.061+449.773+439.71+450.087+440.311C450.402+440.913+450.838+441.214+451.397+441.214C451.834+441.214+452.171+441.013+452.407+440.61C452.644+440.208+452.762+439.681+452.762+439.028C452.762+438.352+452.611+437.716+452.311+437.118C452.01+436.52+451.574+436.222+451.004+436.222Z" opacity="1" fill="#000000"/>
<path d="M454.432+441.202C454.709+441.167+454.903+441.098+455.015+440.994C455.126+440.891+455.182+440.659+455.182+440.3L455.182+437.329C455.182+437.079+455.158+436.903+455.111+436.802C455.037+436.653+454.885+436.579+454.654+436.579C454.619+436.579+454.583+436.581+454.546+436.585C454.509+436.589+454.463+436.595+454.408+436.602L454.408+436.397C454.569+436.351+454.947+436.229+455.545+436.034L456.096+435.852C456.123+435.852+456.14+435.862+456.146+435.882C456.152+435.901+456.154+435.929+456.154+435.964L456.154+436.825C456.514+436.489+456.795+436.259+456.998+436.134C457.303+435.942+457.619+435.847+457.947+435.847C458.213+435.847+458.455+435.923+458.674+436.075C459.096+436.372+459.307+436.901+459.307+437.663L459.307+440.399C459.307+440.681+459.363+440.884+459.477+441.009C459.59+441.134+459.779+441.198+460.045+441.202L460.045+441.366L457.543+441.366L457.543+441.202C457.828+441.163+458.027+441.084+458.141+440.965C458.254+440.846+458.311+440.587+458.311+440.188L458.311+437.686C458.311+437.351+458.248+437.072+458.123+436.851C457.998+436.631+457.768+436.52+457.432+436.52C457.201+436.52+456.967+436.599+456.729+436.755C456.596+436.845+456.424+436.993+456.213+437.2L456.213+440.481C456.213+440.763+456.276+440.951+456.401+441.047C456.526+441.143+456.723+441.194+456.992+441.202L456.992+441.366L454.432+441.366L454.432+441.202Z" opacity="1" fill="#000000"/>
<path d="M462.963+435.87C463.514+435.87+463.996+436.06+464.41+436.441C464.824+436.822+465.031+437.362+465.031+438.061L461.311+438.061C461.35+438.968+461.555+439.628+461.926+440.042C462.297+440.456+462.736+440.663+463.244+440.663C463.654+440.663+464+440.556+464.281+440.341C464.563+440.126+464.822+439.821+465.061+439.427L465.266+439.497C465.106+439.993+464.806+440.452+464.366+440.874C463.927+441.296+463.389+441.507+462.752+441.507C462.018+441.507+461.45+441.229+461.05+440.675C460.65+440.12+460.449+439.481+460.449+438.759C460.449+437.974+460.682+437.296+461.147+436.726C461.611+436.155+462.217+435.87+462.963+435.87ZM462.623+436.298C462.178+436.298+461.838+436.495+461.604+436.89C461.479+437.101+461.389+437.366+461.334+437.686L463.807+437.686C463.764+437.296+463.69+437.005+463.584+436.813C463.393+436.47+463.072+436.298+462.623+436.298Z" opacity="1" fill="#000000"/>
<path d="M468.758+441.202C469.035+441.167+469.23+441.098+469.341+440.994C469.452+440.891+469.508+440.659+469.508+440.3L469.508+437.329C469.508+437.079+469.485+436.903+469.438+436.802C469.363+436.653+469.211+436.579+468.981+436.579C468.945+436.579+468.909+436.581+468.872+436.585C468.835+436.589+468.789+436.595+468.735+436.602L468.735+436.397C468.895+436.351+469.274+436.229+469.871+436.034L470.422+435.852C470.449+435.852+470.466+435.862+470.472+435.882C470.478+435.901+470.481+435.929+470.481+435.964L470.481+436.825C470.84+436.489+471.121+436.259+471.324+436.134C471.629+435.942+471.945+435.847+472.274+435.847C472.539+435.847+472.781+435.923+473+436.075C473.422+436.372+473.633+436.901+473.633+437.663L473.633+440.399C473.633+440.681+473.69+440.884+473.803+441.009C473.916+441.134+474.106+441.198+474.371+441.202L474.371+441.366L471.869+441.366L471.869+441.202C472.154+441.163+472.354+441.084+472.467+440.965C472.58+440.846+472.637+440.587+472.637+440.188L472.637+437.686C472.637+437.351+472.574+437.072+472.449+436.851C472.324+436.631+472.094+436.52+471.758+436.52C471.527+436.52+471.293+436.599+471.055+436.755C470.922+436.845+470.75+436.993+470.539+437.2L470.539+440.481C470.539+440.763+470.602+440.951+470.727+441.047C470.852+441.143+471.049+441.194+471.319+441.202L471.319+441.366L468.758+441.366L468.758+441.202Z" opacity="1" fill="#000000"/>
<path d="M474.846+438.647C474.846+437.87+475.093+437.213+475.587+436.676C476.081+436.139+476.717+435.87+477.494+435.87C478.268+435.87+478.908+436.124+479.416+436.632C479.924+437.14+480.178+437.815+480.178+438.659C480.178+439.436+479.932+440.112+479.44+440.686C478.947+441.261+478.311+441.548+477.529+441.548C476.779+441.548+476.145+441.272+475.625+440.722C475.106+440.171+474.846+439.479+474.846+438.647ZM477.33+436.222C477.022+436.222+476.754+436.323+476.527+436.526C476.137+436.882+475.942+437.495+475.942+438.366C475.942+439.061+476.099+439.71+476.413+440.311C476.728+440.913+477.164+441.214+477.723+441.214C478.16+441.214+478.497+441.013+478.734+440.61C478.97+440.208+479.088+439.681+479.088+439.028C479.088+438.352+478.938+437.716+478.637+437.118C478.336+436.52+477.901+436.222+477.33+436.222Z" opacity="1" fill="#000000"/>
<path d="M480.758+441.202C481.035+441.167+481.23+441.098+481.341+440.994C481.452+440.891+481.508+440.659+481.508+440.3L481.508+437.329C481.508+437.079+481.485+436.903+481.438+436.802C481.363+436.653+481.211+436.579+480.981+436.579C480.945+436.579+480.909+436.581+480.872+436.585C480.835+436.589+480.789+436.595+480.735+436.602L480.735+436.397C480.895+436.351+481.274+436.229+481.871+436.034L482.422+435.852C482.449+435.852+482.466+435.862+482.472+435.882C482.478+435.901+482.481+435.929+482.481+435.964L482.481+436.825C482.84+436.489+483.121+436.259+483.324+436.134C483.629+435.942+483.945+435.847+484.274+435.847C484.539+435.847+484.781+435.923+485+436.075C485.422+436.372+485.633+436.901+485.633+437.663L485.633+440.399C485.633+440.681+485.69+440.884+485.803+441.009C485.916+441.134+486.106+441.198+486.371+441.202L486.371+441.366L483.869+441.366L483.869+441.202C484.154+441.163+484.354+441.084+484.467+440.965C484.58+440.846+484.637+440.587+484.637+440.188L484.637+437.686C484.637+437.351+484.574+437.072+484.449+436.851C484.324+436.631+484.094+436.52+483.758+436.52C483.527+436.52+483.293+436.599+483.055+436.755C482.922+436.845+482.75+436.993+482.539+437.2L482.539+440.481C482.539+440.763+482.602+440.951+482.727+441.047C482.852+441.143+483.049+441.194+483.319+441.202L483.319+441.366L480.758+441.366L480.758+441.202Z" opacity="1" fill="#000000"/>
<path d="M489.594+441.173C489.953+441.142+490.192+441.078+490.309+440.982C490.426+440.887+490.485+440.683+490.485+440.37L490.485+437.727C490.485+437.341+490.448+437.064+490.376+436.898C490.304+436.732+490.172+436.649+489.981+436.649C489.942+436.649+489.89+436.654+489.825+436.664C489.761+436.674+489.694+436.686+489.623+436.702L489.623+436.509C489.846+436.431+490.074+436.351+490.309+436.268C490.543+436.186+490.705+436.128+490.795+436.093C490.99+436.018+491.192+435.934+491.399+435.841C491.426+435.841+491.443+435.851+491.448+435.87C491.454+435.89+491.457+435.931+491.457+435.993L491.457+436.954C491.707+436.606+491.948+436.335+492.181+436.14C492.413+435.944+492.654+435.847+492.904+435.847C493.104+435.847+493.266+435.906+493.391+436.025C493.516+436.144+493.578+436.294+493.578+436.474C493.578+436.634+493.53+436.768+493.435+436.878C493.339+436.987+493.219+437.042+493.074+437.042C492.926+437.042+492.777+436.974+492.626+436.837C492.476+436.7+492.358+436.632+492.272+436.632C492.135+436.632+491.967+436.742+491.768+436.963C491.569+437.184+491.469+437.411+491.469+437.645L491.469+440.288C491.469+440.624+491.547+440.857+491.703+440.988C491.86+441.119+492.119+441.181+492.483+441.173L492.483+441.366L489.594+441.366L489.594+441.173Z" opacity="1" fill="#000000"/>
<path d="M496.285+435.87C496.836+435.87+497.319+436.06+497.733+436.441C498.147+436.822+498.354+437.362+498.354+438.061L494.633+438.061C494.672+438.968+494.877+439.628+495.248+440.042C495.619+440.456+496.059+440.663+496.567+440.663C496.977+440.663+497.322+440.556+497.604+440.341C497.885+440.126+498.145+439.821+498.383+439.427L498.588+439.497C498.428+439.993+498.128+440.452+497.689+440.874C497.249+441.296+496.711+441.507+496.074+441.507C495.34+441.507+494.773+441.229+494.372+440.675C493.972+440.12+493.772+439.481+493.772+438.759C493.772+437.974+494.004+437.296+494.469+436.726C494.934+436.155+495.539+435.87+496.285+435.87ZM495.945+436.298C495.5+436.298+495.16+436.495+494.926+436.89C494.801+437.101+494.711+437.366+494.656+437.686L497.129+437.686C497.086+437.296+497.012+437.005+496.906+436.813C496.715+436.47+496.395+436.298+495.945+436.298Z" opacity="1" fill="#000000"/>
<path d="M499.08+441.202C499.358+441.167+499.552+441.098+499.663+440.994C499.775+440.891+499.83+440.659+499.83+440.3L499.83+437.329C499.83+437.079+499.807+436.903+499.76+436.802C499.686+436.653+499.533+436.579+499.303+436.579C499.268+436.579+499.232+436.581+499.194+436.585C499.157+436.589+499.111+436.595+499.057+436.602L499.057+436.397C499.217+436.351+499.596+436.229+500.194+436.034L500.744+435.852C500.772+435.852+500.788+435.862+500.794+435.882C500.8+435.901+500.803+435.929+500.803+435.964L500.803+436.825C501.162+436.489+501.444+436.259+501.647+436.134C501.951+435.942+502.268+435.847+502.596+435.847C502.861+435.847+503.104+435.923+503.322+436.075C503.744+436.372+503.955+436.901+503.955+437.663L503.955+440.399C503.955+440.681+504.012+440.884+504.125+441.009C504.238+441.134+504.428+441.198+504.694+441.202L504.694+441.366L502.192+441.366L502.192+441.202C502.477+441.163+502.676+441.084+502.789+440.965C502.902+440.846+502.959+440.587+502.959+440.188L502.959+437.686C502.959+437.351+502.897+437.072+502.772+436.851C502.647+436.631+502.416+436.52+502.08+436.52C501.85+436.52+501.615+436.599+501.377+436.755C501.244+436.845+501.072+436.993+500.861+437.2L500.861+440.481C500.861+440.763+500.924+440.951+501.049+441.047C501.174+441.143+501.371+441.194+501.641+441.202L501.641+441.366L499.08+441.366L499.08+441.202Z" opacity="1" fill="#000000"/>
<path d="M507.705+435.829C507.99+435.829+508.252+435.892+508.49+436.017C508.647+436.099+508.797+436.212+508.942+436.356L508.942+434.493C508.942+434.255+508.915+434.091+508.862+434.001C508.81+433.911+508.684+433.866+508.485+433.866C508.438+433.866+508.397+433.868+508.361+433.872C508.326+433.876+508.248+433.884+508.127+433.895L508.127+433.702L508.608+433.579C508.783+433.532+508.959+433.483+509.135+433.433C509.311+433.382+509.465+433.333+509.598+433.286C509.66+433.267+509.764+433.229+509.908+433.175L509.944+433.186L509.932+433.802C509.928+434.024+509.924+434.254+509.92+434.49C509.916+434.726+509.914+434.96+509.914+435.19L509.902+439.977C509.902+440.231+509.934+440.409+509.996+440.511C510.059+440.612+510.225+440.663+510.494+440.663C510.537+440.663+510.58+440.662+510.623+440.66C510.666+440.658+510.709+440.653+510.752+440.645L510.752+440.839C510.729+440.847+510.445+440.944+509.902+441.132L508.983+441.477L508.942+441.425L508.942+440.704C508.723+440.942+508.533+441.112+508.373+441.214C508.088+441.39+507.758+441.477+507.383+441.477C506.719+441.477+506.181+441.221+505.769+440.707C505.357+440.193+505.151+439.599+505.151+438.923C505.151+438.075+505.398+437.348+505.892+436.74C506.386+436.133+506.99+435.829+507.705+435.829ZM507.922+440.845C508.227+440.845+508.473+440.755+508.66+440.575C508.848+440.395+508.942+440.226+508.942+440.065L508.942+437.552C508.942+437.044+508.806+436.685+508.534+436.476C508.263+436.268+507.998+436.163+507.74+436.163C507.248+436.163+506.865+436.381+506.592+436.816C506.319+437.252+506.182+437.788+506.182+438.425C506.182+439.054+506.327+439.614+506.618+440.106C506.909+440.599+507.344+440.845+507.922+440.845Z" opacity="1" fill="#000000"/>
<path d="M512.721+435.94L512.721+439.69C512.721+439.956+512.758+440.169+512.832+440.329C512.977+440.626+513.242+440.774+513.629+440.774C513.895+440.774+514.154+440.686+514.408+440.511C514.553+440.413+514.699+440.278+514.848+440.106L514.848+436.895C514.848+436.595+514.789+436.397+514.672+436.304C514.555+436.21+514.32+436.153+513.969+436.134L513.969+435.94L515.861+435.94L515.861+440.065C515.861+440.331+515.909+440.514+516.005+440.613C516.101+440.713+516.303+440.757+516.611+440.745L516.611+440.909C516.397+440.968+516.238+441.012+516.137+441.041C516.035+441.07+515.865+441.124+515.627+441.202C515.526+441.237+515.303+441.321+514.959+441.454C514.94+441.454+514.928+441.445+514.924+441.428C514.92+441.41+514.918+441.39+514.918+441.366L514.918+440.423C514.652+440.739+514.41+440.974+514.192+441.126C513.86+441.36+513.508+441.477+513.137+441.477C512.797+441.477+512.477+441.356+512.176+441.114C511.871+440.876+511.719+440.476+511.719+439.913L511.719+436.872C511.719+436.559+511.652+436.351+511.52+436.245C511.434+436.179+511.25+436.132+510.969+436.104L510.969+435.94L512.721+435.94Z" opacity="1" fill="#000000"/>
<path d="M519.611+435.87C520.162+435.87+520.645+436.06+521.059+436.441C521.473+436.822+521.68+437.362+521.68+438.061L517.959+438.061C517.998+438.968+518.203+439.628+518.574+440.042C518.945+440.456+519.385+440.663+519.893+440.663C520.303+440.663+520.649+440.556+520.93+440.341C521.211+440.126+521.471+439.821+521.709+439.427L521.914+439.497C521.754+439.993+521.454+440.452+521.015+440.874C520.575+441.296+520.037+441.507+519.401+441.507C518.666+441.507+518.099+441.229+517.698+440.675C517.298+440.12+517.098+439.481+517.098+438.759C517.098+437.974+517.33+437.296+517.795+436.726C518.26+436.155+518.865+435.87+519.611+435.87ZM519.272+436.298C518.826+436.298+518.486+436.495+518.252+436.89C518.127+437.101+518.037+437.366+517.983+437.686L520.455+437.686C520.412+437.296+520.338+437.005+520.233+436.813C520.041+436.47+519.721+436.298+519.272+436.298Z" opacity="1" fill="#000000"/>
</g>
<g opacity="1">
<path d="M345.529+335.299C345.984+335.503+346.316+335.565+346.525+335.485C346.733+335.404+346.996+335.09+347.312+334.542L349.958+329.96L349.912+329.711C349.864+329.443+349.798+329.258+349.716+329.154C349.634+329.05+349.488+328.934+349.279+328.804L349.39+328.611L351.171+329.639L352.286+336.954L354.293+333.478C354.623+332.906+354.754+332.485+354.684+332.215C354.637+332.039+354.432+331.824+354.069+331.569L354.18+331.377L356.621+332.786L356.51+332.979C356.091+332.791+355.771+332.735+355.551+332.811C355.332+332.887+355.064+333.197+354.75+333.742L351.592+339.212L351.414+339.109L350.107+330.757L347.769+334.806C347.441+335.374+347.31+335.793+347.376+336.061C347.42+336.235+347.618+336.451+347.97+336.708L347.861+336.896L345.421+335.487L345.529+335.299Z" opacity="1" fill="#000000"/>
<path d="M357.937+336.367C358.414+336.642+358.736+337.048+358.904+337.585C359.073+338.122+358.982+338.693+358.632+339.299L355.41+337.438C354.991+338.243+354.838+338.917+354.953+339.461C355.067+340.005+355.344+340.404+355.784+340.658C356.139+340.863+356.492+340.943+356.843+340.897C357.194+340.852+357.571+340.718+357.975+340.496L358.118+340.659C357.731+341.008+357.242+341.256+356.65+341.402C356.059+341.547+355.487+341.461+354.936+341.143C354.3+340.775+353.947+340.252+353.878+339.571C353.808+338.89+353.954+338.237+354.316+337.611C354.708+336.931+355.248+336.461+355.936+336.199C356.624+335.938+357.291+335.993+357.937+336.367ZM357.429+336.567C357.043+336.344+356.65+336.345+356.25+336.57C356.036+336.69+355.825+336.875+355.618+337.125L357.759+338.361C357.917+338.002+357.999+337.713+358.003+337.494C358.009+337.101+357.818+336.792+357.429+336.567Z" opacity="1" fill="#000000"/>
<path d="M362.023+341.324C361.56+341.228+361.156+341.184+360.813+341.193C360.152+341.213+359.711+341.414+359.49+341.797C359.313+342.104+359.283+342.39+359.402+342.652C359.48+342.823+359.599+342.956+359.762+343.049C359.985+343.178+360.235+343.239+360.512+343.232C360.789+343.225+360.983+343.125+361.094+342.932L362.023+341.324ZM358.385+341.625C358.668+341.135+359.15+340.867+359.83+340.822C360.258+340.799+361.038+340.881+362.17+341.07L362.419+340.639C362.618+340.294+362.723+340.034+362.733+339.86C362.749+339.567+362.576+339.316+362.214+339.107C362.041+339.007+361.852+338.956+361.646+338.954C361.437+338.956+361.287+339.036+361.195+339.195C361.172+339.236+361.141+339.309+361.102+339.415C361.063+339.521+361.036+339.588+361.021+339.615C360.911+339.805+360.772+339.9+360.604+339.903C360.508+339.905+360.411+339.879+360.312+339.822C360.16+339.734+360.072+339.617+360.049+339.47C360.025+339.324+360.049+339.189+360.119+339.067C360.256+338.831+360.545+338.667+360.987+338.578C361.429+338.488+361.933+338.606+362.497+338.932C363.154+339.311+363.476+339.781+363.463+340.342C363.453+340.648+363.32+341.024+363.062+341.47L361.887+343.505C361.774+343.701+361.709+343.844+361.693+343.934C361.661+344.092+361.714+344.21+361.853+344.291C361.931+344.335+362.002+344.361+362.066+344.366C362.131+344.372+362.252+344.365+362.43+344.346L362.277+344.61C362.093+344.679+361.914+344.72+361.74+344.733C361.476+344.752+361.246+344.705+361.05+344.591C360.82+344.459+360.696+344.288+360.679+344.08C360.662+343.871+360.708+343.661+360.817+343.449C360.431+343.524+360.115+343.562+359.87+343.565C359.457+343.57+359.111+343.492+358.834+343.332C358.543+343.164+358.35+342.916+358.255+342.589C358.16+342.261+358.203+341.94+358.385+341.625Z" opacity="1" fill="#000000"/>
<path d="M362.176+344.937C362.503+345.09+362.741+345.154+362.891+345.13C363.04+345.106+363.193+344.958+363.349+344.687L364.67+342.399C364.864+342.064+364.971+341.807+364.991+341.627C365.011+341.447+364.939+341.309+364.773+341.213C364.739+341.194+364.692+341.172+364.631+341.148C364.571+341.125+364.506+341.102+364.437+341.08L364.534+340.913C364.766+340.956+365.004+341.001+365.248+341.048C365.492+341.094+365.661+341.124+365.757+341.138C365.963+341.172+366.179+341.2+366.405+341.222C366.429+341.236+366.438+341.252+366.434+341.272C366.429+341.292+366.411+341.329+366.38+341.383L365.899+342.215C366.29+342.039+366.634+341.925+366.933+341.872C367.232+341.819+367.49+341.855+367.706+341.98C367.879+342.08+367.99+342.212+368.038+342.378C368.087+342.544+368.066+342.704+367.977+342.86C367.896+342.999+367.788+343.091+367.65+343.138C367.513+343.185+367.381+343.172+367.256+343.1C367.127+343.026+367.032+342.892+366.97+342.698C366.908+342.505+366.84+342.387+366.766+342.344C366.647+342.275+366.447+342.287+366.164+342.378C365.881+342.47+365.681+342.617+365.564+342.82L364.243+345.109C364.075+345.4+364.026+345.641+364.095+345.832C364.165+346.024+364.36+346.207+364.678+346.382L364.581+346.549L362.08+345.105L362.176+344.937Z" opacity="1" fill="#000000"/>
<path d="M370.291+348.601C370.246+348.882+370.278+349.129+370.387+349.343C370.496+349.557+370.669+349.732+370.906+349.869C371.271+350.08+371.688+350.078+372.157+349.864C372.625+349.65+373.047+349.218+373.422+348.568C373.782+347.946+373.916+347.403+373.825+346.94C373.733+346.477+373.51+346.143+373.155+345.938C372.905+345.793+372.632+345.738+372.337+345.773C372.041+345.808+371.851+345.9+371.765+346.048L370.291+348.601ZM366.929+350.699C367.258+350.862+367.499+350.911+367.652+350.846C367.805+350.78+367.952+350.624+368.095+350.377L370.907+345.506C371.056+345.249+371.12+345.066+371.099+344.957C371.079+344.848+370.982+344.744+370.81+344.644C370.772+344.623+370.737+344.605+370.703+344.589C370.669+344.574+370.618+344.554+370.551+344.529L370.648+344.362L371.221+344.483C371.24+344.489+371.647+344.569+372.443+344.721C372.46+344.731+372.468+344.746+372.468+344.766C372.468+344.786+372.462+344.807+372.45+344.827L372.054+345.512C372.406+345.418+372.698+345.365+372.93+345.354C373.344+345.341+373.711+345.427+374.033+345.612C374.5+345.882+374.787+346.312+374.894+346.904C375.001+347.496+374.855+348.137+374.457+348.827C374.066+349.504+373.51+350.001+372.787+350.319C372.064+350.637+371.397+350.619+370.785+350.266C370.595+350.156+370.445+350.038+370.333+349.911C370.158+349.715+370.033+349.469+369.96+349.174L369.002+350.834C368.805+351.175+368.74+351.417+368.806+351.559C368.873+351.702+369.086+351.895+369.446+352.139L369.344+352.316L366.832+350.866L366.929+350.699Z" opacity="1" fill="#000000"/>
<path d="M373.584+351.557C373.916+351.709+374.166+351.768+374.333+351.736C374.501+351.704+374.665+351.548+374.827+351.267L377.69+346.31C377.819+346.086+377.889+345.922+377.901+345.816C377.915+345.634+377.819+345.484+377.613+345.365C377.565+345.338+377.511+345.313+377.449+345.291C377.387+345.269+377.308+345.244+377.212+345.215L377.309+345.048C377.836+345.19+378.479+345.345+379.239+345.513C379.263+345.526+379.271+345.545+379.265+345.568C379.258+345.591+379.235+345.637+379.196+345.704L375.683+351.788C375.514+352.083+375.454+352.302+375.506+352.447C375.558+352.592+375.736+352.768+376.04+352.975L375.958+353.118L373.502+351.7L373.584+351.557Z" opacity="1" fill="#000000"/>
<path d="M380.778+352.152C380.315+352.056+379.911+352.012+379.568+352.022C378.907+352.041+378.466+352.242+378.245+352.625C378.068+352.933+378.038+353.218+378.157+353.481C378.234+353.651+378.354+353.784+378.517+353.877C378.74+354.006+378.99+354.067+379.267+354.06C379.544+354.053+379.738+353.953+379.849+353.761L380.778+352.152ZM377.14+352.453C377.423+351.963+377.905+351.695+378.585+351.65C379.013+351.627+379.793+351.71+380.924+351.898L381.174+351.467C381.373+351.122+381.478+350.862+381.488+350.688C381.504+350.395+381.331+350.144+380.969+349.935C380.796+349.835+380.607+349.784+380.4+349.783C380.192+349.784+380.042+349.864+379.95+350.023C379.927+350.064+379.896+350.137+379.857+350.243C379.818+350.35+379.791+350.416+379.775+350.443C379.666+350.633+379.527+350.729+379.359+350.731C379.263+350.734+379.165+350.707+379.067+350.65C378.915+350.562+378.827+350.445+378.804+350.298C378.78+350.152+378.803+350.017+378.874+349.896C379.01+349.659+379.3+349.495+379.742+349.406C380.184+349.316+380.687+349.434+381.252+349.76C381.909+350.139+382.23+350.609+382.218+351.17C382.208+351.476+382.074+351.852+381.817+352.298L380.642+354.333C380.529+354.529+380.464+354.673+380.448+354.763C380.416+354.92+380.469+355.039+380.608+355.119C380.686+355.164+380.757+355.189+380.821+355.194C380.886+355.2+381.007+355.193+381.185+355.174L381.032+355.438C380.848+355.508+380.669+355.548+380.495+355.561C380.231+355.58+380.001+355.533+379.805+355.42C379.575+355.287+379.451+355.116+379.434+354.908C379.417+354.699+379.463+354.489+379.572+354.277C379.186+354.352+378.87+354.39+378.625+354.393C378.211+354.398+377.866+354.321+377.589+354.16C377.298+353.992+377.105+353.745+377.01+353.417C376.915+353.089+376.958+352.768+377.14+352.453Z" opacity="1" fill="#000000"/>
<path d="M381.059+355.873C381.316+355.981+381.519+356.018+381.668+355.984C381.816+355.95+381.98+355.778+382.159+355.466L383.645+352.894C383.77+352.677+383.837+352.513+383.848+352.402C383.857+352.236+383.763+352.096+383.563+351.981C383.533+351.963+383.5+351.947+383.466+351.931C383.432+351.916+383.389+351.898+383.338+351.878L383.441+351.7C383.603+351.74+383.992+351.824+384.607+351.954L385.175+352.072C385.198+352.086+385.208+352.102+385.203+352.122C385.198+352.142+385.187+352.167+385.17+352.198L384.739+352.944C385.218+352.832+385.577+352.773+385.815+352.767C386.175+352.753+386.497+352.829+386.781+352.993C387.011+353.126+387.183+353.313+387.296+353.554C387.513+354.022+387.431+354.586+387.05+355.245L385.682+357.615C385.541+357.859+385.489+358.063+385.524+358.228C385.56+358.393+385.692+358.543+385.92+358.68L385.838+358.822L383.671+357.571L383.753+357.429C384.02+357.537+384.232+357.568+384.389+357.522C384.547+357.475+384.726+357.28+384.925+356.934L386.176+354.768C386.344+354.477+386.429+354.205+386.431+353.951C386.433+353.697+386.289+353.486+385.998+353.318C385.798+353.203+385.556+353.154+385.271+353.17C385.112+353.181+384.888+353.224+384.602+353.298L382.962+356.139C382.821+356.383+382.781+356.577+382.841+356.723C382.902+356.868+383.047+357.012+383.276+357.153L383.194+357.295L380.977+356.015L381.059+355.873Z" opacity="1" fill="#000000"/>
<path d="M391.113+355.521C391.59+355.796+391.913+356.202+392.081+356.739C392.249+357.276+392.158+357.847+391.809+358.453L388.586+356.592C388.167+357.397+388.015+358.071+388.129+358.615C388.243+359.159+388.52+359.558+388.96+359.812C389.315+360.017+389.668+360.097+390.019+360.052C390.37+360.006+390.748+359.872+391.151+359.65L391.294+359.813C390.907+360.163+390.418+360.41+389.826+360.556C389.235+360.702+388.663+360.615+388.112+360.297C387.476+359.93+387.123+359.406+387.054+358.725C386.984+358.045+387.13+357.392+387.492+356.766C387.884+356.086+388.424+355.615+389.112+355.353C389.8+355.092+390.467+355.148+391.113+355.521ZM390.605+355.721C390.219+355.499+389.826+355.5+389.426+355.724C389.212+355.844+389.002+356.029+388.794+356.279L390.935+357.516C391.094+357.156+391.175+356.867+391.179+356.648C391.185+356.255+390.994+355.946+390.605+355.721Z" opacity="1" fill="#000000"/>
</g>
<g opacity="1">
<path d="M570.621+195.156C571.055+195.348+571.353+195.42+571.515+195.371C571.676+195.322+571.887+195.073+572.146+194.623L574.745+190.122C574.958+189.753+575.041+189.48+574.995+189.302C574.949+189.124+574.741+188.91+574.371+188.661L574.482+188.468L580.018+191.664L579.192+193.177L578.903+193.01C579.107+192.492+579.148+192.112+579.025+191.872C578.902+191.632+578.551+191.345+577.973+191.011L576.552+190.191C576.413+190.111+576.311+190.083+576.245+190.108C576.178+190.133+576.105+190.215+576.025+190.353L574.686+192.672L576.188+193.54C576.631+193.796+576.952+193.893+577.15+193.831C577.348+193.769+577.6+193.559+577.907+193.199L578.151+193.34L576.762+195.745L576.519+195.604C576.673+195.157+576.727+194.833+576.681+194.632C576.634+194.432+576.391+194.205+575.951+193.951L574.449+193.083L573.137+195.357C572.916+195.739+572.833+196.017+572.888+196.191C572.943+196.365+573.158+196.581+573.533+196.838L573.425+197.025L570.512+195.344L570.621+195.156Z" opacity="1" fill="#000000"/>
<path d="M580.777+197.522C580.314+197.426+579.91+197.382+579.567+197.391C578.906+197.411+578.465+197.612+578.244+197.994C578.066+198.302+578.037+198.588+578.156+198.85C578.233+199.021+578.353+199.153+578.515+199.247C578.739+199.376+578.989+199.437+579.266+199.43C579.543+199.423+579.737+199.323+579.848+199.13L580.777+197.522ZM577.139+197.823C577.422+197.333+577.904+197.065+578.584+197.02C579.012+196.997+579.792+197.079+580.923+197.268L581.172+196.837C581.372+196.492+581.476+196.232+581.487+196.058C581.503+195.764+581.33+195.513+580.968+195.304C580.795+195.205+580.606+195.154+580.399+195.152C580.191+195.154+580.041+195.234+579.949+195.393C579.926+195.434+579.895+195.507+579.856+195.613C579.817+195.719+579.79+195.786+579.774+195.813C579.665+196.002+579.526+196.098+579.358+196.1C579.262+196.103+579.164+196.076+579.066+196.02C578.914+195.932+578.826+195.815+578.803+195.668C578.779+195.521+578.802+195.387+578.873+195.265C579.009+195.029+579.299+194.865+579.741+194.775C580.183+194.686+580.686+194.804+581.251+195.13C581.908+195.509+582.229+195.979+582.217+196.54C582.207+196.845+582.073+197.222+581.816+197.668L580.641+199.703C580.527+199.899+580.463+200.042+580.447+200.132C580.415+200.29+580.468+200.408+580.607+200.488C580.685+200.533+580.756+200.559+580.82+200.564C580.884+200.57+581.006+200.563+581.184+200.544L581.031+200.808C580.847+200.877+580.668+200.918+580.494+200.93C580.23+200.95+580+200.903+579.804+200.789C579.574+200.657+579.45+200.486+579.433+200.277C579.416+200.069+579.461+199.859+579.57+199.647C579.184+199.721+578.869+199.76+578.624+199.763C578.21+199.768+577.865+199.69+577.588+199.53C577.297+199.362+577.104+199.114+577.009+198.787C576.914+198.459+576.957+198.138+577.139+197.823Z" opacity="1" fill="#000000"/>
<path d="M580.93+201.135C581.257+201.288+581.495+201.352+581.644+201.328C581.794+201.303+581.947+201.156+582.103+200.885L583.424+198.597C583.617+198.262+583.724+198.004+583.745+197.825C583.765+197.645+583.693+197.507+583.527+197.411C583.493+197.392+583.446+197.37+583.385+197.346C583.324+197.322+583.26+197.3+583.191+197.278L583.288+197.111C583.519+197.154+583.757+197.199+584.001+197.245C584.245+197.292+584.415+197.322+584.51+197.336C584.717+197.37+584.933+197.398+585.159+197.42C585.183+197.434+585.192+197.45+585.188+197.47C585.183+197.49+585.165+197.527+585.134+197.581L584.653+198.413C585.043+198.237+585.388+198.123+585.687+198.07C585.986+198.017+586.244+198.053+586.46+198.178C586.633+198.277+586.743+198.41+586.792+198.576C586.841+198.741+586.82+198.902+586.73+199.058C586.65+199.196+586.541+199.289+586.404+199.336C586.266+199.383+586.135+199.37+586.01+199.298C585.881+199.224+585.786+199.09+585.724+198.896C585.662+198.703+585.594+198.584+585.52+198.541C585.401+198.473+585.201+198.485+584.918+198.576C584.635+198.668+584.435+198.815+584.318+199.018L582.996+201.306C582.828+201.597+582.779+201.839+582.849+202.03C582.919+202.221+583.113+202.405+583.432+202.58L583.335+202.747L580.833+201.303L580.93+201.135Z" opacity="1" fill="#000000"/>
<path d="M589.045+204.799C589+205.079+589.032+205.327+589.141+205.541C589.25+205.755+589.422+205.93+589.659+206.067C590.025+206.278+590.442+206.276+590.91+206.062C591.379+205.847+591.801+205.416+592.176+204.766C592.535+204.144+592.67+203.601+592.578+203.138C592.487+202.675+592.264+202.341+591.909+202.135C591.658+201.991+591.386+201.936+591.09+201.971C590.795+202.006+590.605+202.097+590.519+202.246L589.045+204.799ZM585.682+206.896C586.012+207.06+586.253+207.109+586.406+207.044C586.559+206.978+586.706+206.822+586.849+206.575L589.661+201.704C589.81+201.447+589.874+201.264+589.853+201.155C589.832+201.046+589.736+200.942+589.563+200.842C589.526+200.821+589.49+200.802+589.456+200.787C589.422+200.772+589.372+200.752+589.305+200.727L589.402+200.56L589.975+200.681C589.994+200.687+590.401+200.766+591.197+200.919C591.214+200.929+591.222+200.944+591.222+200.964C591.221+200.984+591.215+201.004+591.204+201.025L590.808+201.71C591.16+201.615+591.452+201.563+591.684+201.552C592.098+201.539+592.465+201.625+592.787+201.81C593.253+202.08+593.54+202.51+593.648+203.102C593.755+203.694+593.609+204.335+593.211+205.025C592.82+205.702+592.263+206.199+591.541+206.517C590.818+206.835+590.151+206.817+589.538+206.464C589.349+206.354+589.198+206.236+589.087+206.108C588.912+205.912+588.787+205.667+588.714+205.372L587.756+207.031C587.559+207.373+587.493+207.615+587.56+207.757C587.627+207.9+587.84+208.093+588.2+208.336L588.097+208.514L585.586+207.064L585.682+206.896Z" opacity="1" fill="#000000"/>
<path d="M592.338+207.755C592.67+207.906+592.92+207.966+593.087+207.934C593.254+207.902+593.419+207.746+593.581+207.465L596.444+202.507C596.572+202.284+596.643+202.119+596.654+202.013C596.669+201.832+596.573+201.682+596.366+201.563C596.319+201.536+596.264+201.511+596.203+201.489C596.141+201.467+596.062+201.441+595.966+201.413L596.063+201.245C596.59+201.387+597.233+201.542+597.993+201.71C598.017+201.724+598.025+201.743+598.018+201.766C598.012+201.789+597.989+201.834+597.95+201.902L594.437+207.986C594.267+208.281+594.208+208.5+594.26+208.645C594.312+208.79+594.49+208.966+594.794+209.173L594.712+209.315L592.256+207.897L592.338+207.755Z" opacity="1" fill="#000000"/>
<path d="M599.532+208.35C599.068+208.254+598.665+208.21+598.322+208.219C597.661+208.239+597.22+208.44+596.999+208.823C596.821+209.13+596.792+209.416+596.911+209.678C596.988+209.849+597.108+209.982+597.27+210.075C597.494+210.204+597.744+210.265+598.021+210.258C598.298+210.251+598.492+210.151+598.603+209.958L599.532+208.35ZM595.894+208.651C596.177+208.161+596.658+207.893+597.338+207.848C597.767+207.825+598.547+207.907+599.678+208.096L599.927+207.665C600.126+207.32+600.231+207.06+600.242+206.886C600.258+206.593+600.085+206.342+599.723+206.133C599.55+206.033+599.361+205.982+599.154+205.98C598.946+205.982+598.796+206.062+598.704+206.221C598.681+206.262+598.649+206.335+598.611+206.441C598.572+206.547+598.545+206.614+598.529+206.641C598.42+206.831+598.281+206.926+598.113+206.929C598.016+206.931+597.919+206.905+597.821+206.848C597.669+206.76+597.581+206.643+597.557+206.496C597.534+206.349+597.557+206.215+597.627+206.093C597.764+205.857+598.054+205.693+598.496+205.603C598.938+205.514+599.441+205.632+600.006+205.958C600.662+206.337+600.984+206.807+600.971+207.368C600.962+207.674+600.828+208.05+600.57+208.496L599.396+210.531C599.282+210.727+599.218+210.87+599.202+210.96C599.17+211.118+599.223+211.236+599.362+211.317C599.439+211.361+599.51+211.387+599.575+211.392C599.639+211.398+599.76+211.391+599.938+211.372L599.786+211.636C599.602+211.705+599.422+211.746+599.248+211.759C598.985+211.778+598.755+211.731+598.559+211.617C598.329+211.485+598.205+211.314+598.188+211.106C598.17+210.897+598.216+210.687+598.325+210.475C597.939+210.549+597.624+210.588+597.379+210.591C596.965+210.596+596.62+210.518+596.342+210.358C596.052+210.19+595.859+209.942+595.764+209.615C595.669+209.287+595.712+208.966+595.894+208.651Z" opacity="1" fill="#000000"/>
<path d="M599.812+212.071C600.07+212.179+600.273+212.216+600.421+212.182C600.57+212.148+600.733+211.975+600.913+211.664L602.398+209.092C602.523+208.875+602.591+208.711+602.601+208.6C602.611+208.434+602.516+208.294+602.317+208.178C602.286+208.161+602.254+208.144+602.22+208.129C602.186+208.114+602.143+208.096+602.092+208.076L602.194+207.898C602.357+207.938+602.745+208.022+603.361+208.152L603.928+208.27C603.952+208.284+603.962+208.3+603.957+208.32C603.952+208.34+603.941+208.365+603.923+208.396L603.493+209.141C603.972+209.03+604.331+208.971+604.569+208.965C604.929+208.951+605.251+209.027+605.535+209.191C605.765+209.323+605.936+209.51+606.05+209.752C606.267+210.22+606.185+210.784+605.804+211.443L604.436+213.813C604.295+214.057+604.243+214.261+604.278+214.426C604.314+214.591+604.446+214.741+604.674+214.877L604.592+215.019L602.425+213.768L602.507+213.626C602.773+213.735+602.985+213.766+603.143+213.72C603.301+213.673+603.479+213.477+603.678+213.132L604.929+210.966C605.097+210.675+605.182+210.402+605.185+210.149C605.187+209.895+605.042+209.684+604.751+209.516C604.552+209.401+604.31+209.352+604.025+209.368C603.865+209.379+603.642+209.422+603.356+209.496L601.715+212.337C601.575+212.581+601.535+212.775+601.595+212.921C601.655+213.066+601.8+213.209+602.03+213.351L601.948+213.493L599.73+212.213L599.812+212.071Z" opacity="1" fill="#000000"/>
<path d="M609.867+211.719C610.344+211.994+610.666+212.4+610.834+212.937C611.003+213.474+610.912+214.045+610.562+214.651L607.34+212.79C606.921+213.595+606.768+214.269+606.883+214.813C606.997+215.357+607.274+215.756+607.714+216.01C608.069+216.215+608.422+216.295+608.773+216.25C609.124+216.204+609.501+216.07+609.905+215.848L610.047+216.011C609.661+216.361+609.172+216.608+608.58+216.754C607.989+216.899+607.417+216.813+606.866+216.495C606.23+216.128+605.877+215.604+605.808+214.923C605.738+214.243+605.884+213.589+606.245+212.964C606.638+212.284+607.178+211.813+607.866+211.551C608.554+211.29+609.221+211.346+609.867+211.719ZM609.359+211.919C608.973+211.697+608.58+211.697+608.18+211.922C607.966+212.042+607.755+212.227+607.548+212.477L609.689+213.714C609.847+213.354+609.929+213.065+609.933+212.846C609.939+212.453+609.748+212.144+609.359+211.919Z" opacity="1" fill="#000000"/>
</g>
<g opacity="1">
<g>
<path stroke-linecap="round" stroke-width="1" stroke="#000000" d="M293.886+415.604C307.407+406.342+298.836+397.395+293.809+393.558" fill="none" stroke-linejoin="round"/>
<path d="M294.534+394.047L298.668+392.615L290.908+391.599L294.751+398.417L294.534+394.047Z" fill="#000000"/>
<path d="M294.63+415.144L295.024+410.787L290.908+417.444L298.703+416.742L294.63+415.144Z" fill="#000000"/>
</g>
</g>
<g opacity="1">
<g>
<path stroke-linecap="round" stroke-width="1" stroke="#000000" d="M302.709+414.309C307.479+402.067+289.41+403.049+281.572+404.009" fill="none" stroke-linejoin="round"/>
<path d="M282.437+403.881L284.522+400.035L278.11+404.521L285.546+406.96L282.437+403.881Z" fill="#000000"/>
<path d="M303.099+413.526L301.137+409.616L301.148+417.442L307.402+412.737L303.099+413.526Z" fill="#000000"/>
</g>
</g>
<g opacity="1">
<path d="M268.223+434.688C268.696+434.637+268.989+434.55+269.105+434.427C269.22+434.304+269.278+433.983+269.278+433.464L269.278+428.266C269.278+427.84+269.213+427.562+269.084+427.431C268.955+427.3+268.668+427.219+268.223+427.188L268.223+426.965L274.615+426.965L274.656+428.688L274.322+428.688C274.24+428.137+274.086+427.789+273.86+427.642C273.633+427.496+273.186+427.423+272.518+427.423L270.877+427.423C270.717+427.423+270.614+427.45+270.57+427.505C270.525+427.559+270.502+427.667+270.502+427.827L270.502+430.505L272.237+430.505C272.748+430.505+273.074+430.428+273.215+430.276C273.356+430.124+273.469+429.815+273.555+429.35L273.836+429.35L273.836+432.128L273.555+432.128C273.465+431.663+273.35+431.355+273.209+431.205C273.069+431.054+272.744+430.979+272.237+430.979L270.502+430.979L270.502+433.604C270.502+434.046+270.57+434.328+270.704+434.451C270.839+434.574+271.133+434.653+271.586+434.688L271.586+434.905L268.223+434.905L268.223+434.688Z" opacity="1" fill="#000000"/>
<path d="M275.746+427.34C275.746+427.173+275.805+427.028+275.922+426.907C276.039+426.786+276.184+426.725+276.356+426.725C276.524+426.725+276.667+426.785+276.786+426.904C276.905+427.023+276.965+427.169+276.965+427.34C276.965+427.508+276.905+427.652+276.786+427.771C276.667+427.89+276.524+427.95+276.356+427.95C276.184+427.95+276.039+427.89+275.922+427.771C275.805+427.652+275.746+427.508+275.746+427.34ZM274.996+434.741C275.414+434.702+275.678+434.631+275.787+434.527C275.897+434.423+275.951+434.143+275.951+433.686L275.951+430.891C275.951+430.637+275.934+430.462+275.899+430.364C275.84+430.204+275.717+430.124+275.529+430.124C275.487+430.124+275.445+430.128+275.404+430.135C275.362+430.143+275.244+430.174+275.049+430.229L275.049+430.048L275.301+429.965C275.985+429.743+276.461+429.575+276.731+429.462C276.84+429.415+276.91+429.391+276.942+429.391C276.949+429.419+276.953+429.448+276.953+429.479L276.953+433.686C276.953+434.131+277.007+434.411+277.114+434.524C277.222+434.637+277.465+434.71+277.844+434.741L277.844+434.905L274.996+434.905L274.996+434.741Z" opacity="1" fill="#000000"/>
<path d="M280.844+429.409C281.395+429.409+281.877+429.599+282.291+429.98C282.705+430.361+282.912+430.901+282.912+431.6L279.192+431.6C279.231+432.506+279.436+433.167+279.807+433.581C280.178+433.995+280.617+434.202+281.125+434.202C281.535+434.202+281.881+434.094+282.162+433.88C282.444+433.665+282.703+433.36+282.942+432.965L283.147+433.036C282.987+433.532+282.687+433.991+282.247+434.413C281.808+434.835+281.27+435.046+280.633+435.046C279.899+435.046+279.331+434.768+278.931+434.214C278.53+433.659+278.33+433.02+278.33+432.298C278.33+431.512+278.563+430.835+279.028+430.264C279.492+429.694+280.098+429.409+280.844+429.409ZM280.504+429.837C280.059+429.837+279.719+430.034+279.485+430.428C279.36+430.639+279.27+430.905+279.215+431.225L281.688+431.225C281.645+430.835+281.571+430.544+281.465+430.352C281.274+430.008+280.953+429.837+280.504+429.837Z" opacity="1" fill="#000000"/>
<path d="M283.668+434.741C284.031+434.706+284.278+434.632+284.406+434.521C284.535+434.41+284.6+434.192+284.6+433.868L284.6+428.143C284.6+427.885+284.578+427.708+284.535+427.61C284.457+427.446+284.299+427.364+284.061+427.364C284.006+427.364+283.946+427.37+283.882+427.381C283.818+427.393+283.737+427.411+283.639+427.434L283.639+427.241C284.166+427.1+284.801+426.913+285.543+426.678C285.571+426.678+285.587+426.69+285.593+426.714C285.599+426.737+285.602+426.788+285.602+426.866L285.602+433.891C285.602+434.231+285.66+434.451+285.778+434.55C285.895+434.65+286.137+434.714+286.504+434.741L286.504+434.905L283.668+434.905L283.668+434.741Z" opacity="1" fill="#000000"/>
<path d="M289.598+429.368C289.883+429.368+290.145+429.43+290.383+429.555C290.539+429.637+290.69+429.751+290.834+429.895L290.834+428.032C290.834+427.794+290.808+427.63+290.755+427.54C290.702+427.45+290.576+427.405+290.377+427.405C290.33+427.405+290.289+427.407+290.254+427.411C290.219+427.415+290.141+427.423+290.02+427.434L290.02+427.241L290.5+427.118C290.676+427.071+290.852+427.022+291.028+426.971C291.203+426.921+291.358+426.872+291.49+426.825C291.553+426.805+291.656+426.768+291.801+426.714L291.836+426.725L291.824+427.34C291.821+427.563+291.817+427.793+291.813+428.029C291.809+428.265+291.807+428.499+291.807+428.729L291.795+433.516C291.795+433.77+291.826+433.948+291.889+434.049C291.951+434.151+292.117+434.202+292.387+434.202C292.43+434.202+292.473+434.201+292.516+434.199C292.559+434.197+292.602+434.192+292.645+434.184L292.645+434.378C292.621+434.385+292.338+434.483+291.795+434.671L290.875+435.016L290.834+434.964L290.834+434.243C290.615+434.481+290.426+434.651+290.266+434.753C289.981+434.928+289.651+435.016+289.276+435.016C288.612+435.016+288.073+434.759+287.661+434.246C287.249+433.732+287.043+433.137+287.043+432.462C287.043+431.614+287.29+430.886+287.784+430.279C288.279+429.672+288.883+429.368+289.598+429.368ZM289.815+434.383C290.119+434.383+290.365+434.294+290.553+434.114C290.74+433.934+290.834+433.764+290.834+433.604L290.834+431.09C290.834+430.583+290.698+430.224+290.427+430.015C290.155+429.806+289.891+429.702+289.633+429.702C289.141+429.702+288.758+429.92+288.485+430.355C288.211+430.791+288.074+431.327+288.074+431.964C288.074+432.592+288.22+433.153+288.511+433.645C288.802+434.137+289.237+434.383+289.815+434.383Z" opacity="1" fill="#000000"/>
<path d="M296.061+432.186C296.061+431.409+296.308+430.752+296.802+430.215C297.296+429.677+297.932+429.409+298.709+429.409C299.483+429.409+300.123+429.663+300.631+430.171C301.139+430.678+301.393+431.354+301.393+432.198C301.393+432.975+301.147+433.651+300.654+434.225C300.162+434.799+299.526+435.087+298.744+435.087C297.994+435.087+297.36+434.811+296.84+434.26C296.321+433.71+296.061+433.018+296.061+432.186ZM298.545+429.76C298.237+429.76+297.969+429.862+297.742+430.065C297.352+430.421+297.156+431.034+297.156+431.905C297.156+432.6+297.314+433.249+297.628+433.85C297.943+434.452+298.379+434.753+298.938+434.753C299.375+434.753+299.712+434.551+299.948+434.149C300.185+433.747+300.303+433.219+300.303+432.567C300.303+431.891+300.153+431.255+299.852+430.657C299.551+430.059+299.115+429.76+298.545+429.76Z" opacity="1" fill="#000000"/>
<path d="M301.99+434.741C302.404+434.721+302.677+434.644+302.808+434.509C302.939+434.375+303.004+434.09+303.004+433.657L303.004+429.895L302.002+429.895L302.002+429.503L303.004+429.503C303.004+428.885+303.088+428.364+303.256+427.938C303.576+427.122+304.164+426.714+305.02+426.714C305.363+426.714+305.671+426.782+305.943+426.919C306.214+427.055+306.35+427.239+306.35+427.469C306.35+427.598+306.303+427.714+306.209+427.815C306.115+427.917+306.002+427.967+305.869+427.967C305.756+427.967+305.658+427.933+305.576+427.865C305.494+427.797+305.397+427.676+305.283+427.505L305.184+427.352C305.129+427.27+305.065+427.201+304.99+427.144C304.916+427.088+304.813+427.059+304.68+427.059C304.383+427.059+304.182+427.206+304.076+427.499C304.018+427.655+303.988+427.86+303.988+428.114L303.988+429.503L305.459+429.503L305.459+429.895L304+429.895L304+433.657C304+434.098+304.06+434.381+304.179+434.504C304.298+434.627+304.61+434.706+305.113+434.741L305.113+434.905L301.99+434.905L301.99+434.741Z" opacity="1" fill="#000000"/>
<path d="M311.33+429.462L311.33+429.643C311.127+429.667+310.984+429.698+310.9+429.737C310.816+429.776+310.774+429.862+310.774+429.995C310.774+430.057+310.782+430.117+310.8+430.173C310.818+430.23+310.848+430.313+310.891+430.423L312.11+433.452L313.164+430.768C313.215+430.639+313.263+430.505+313.308+430.364C313.353+430.223+313.375+430.116+313.375+430.042C313.375+429.889+313.303+429.78+313.158+429.714C313.072+429.678+312.955+429.655+312.807+429.643L312.807+429.462L314.471+429.462L314.471+429.643C314.279+429.659+314.142+429.722+314.058+429.834C313.974+429.945+313.852+430.202+313.692+430.604L311.998+434.823C311.967+434.897+311.942+434.948+311.922+434.975C311.903+435.003+311.875+435.016+311.84+435.016C311.801+435.016+311.768+434.994+311.74+434.949C311.713+434.904+311.684+434.848+311.653+434.782L309.86+430.493C309.715+430.145+309.561+429.909+309.397+429.784C309.299+429.714+309.156+429.667+308.969+429.643L308.969+429.462L311.33+429.462Z" opacity="1" fill="#000000"/>
<path d="M315.737+427.34C315.737+427.173+315.795+427.028+315.912+426.907C316.029+426.786+316.174+426.725+316.346+426.725C316.514+426.725+316.657+426.785+316.777+426.904C316.896+427.023+316.955+427.169+316.955+427.34C316.955+427.508+316.896+427.652+316.777+427.771C316.657+427.89+316.514+427.95+316.346+427.95C316.174+427.95+316.029+427.89+315.912+427.771C315.795+427.652+315.737+427.508+315.737+427.34ZM314.987+434.741C315.404+434.702+315.668+434.631+315.778+434.527C315.887+434.423+315.942+434.143+315.942+433.686L315.942+430.891C315.942+430.637+315.924+430.462+315.889+430.364C315.83+430.204+315.707+430.124+315.52+430.124C315.477+430.124+315.435+430.128+315.394+430.135C315.353+430.143+315.235+430.174+315.039+430.229L315.039+430.048L315.291+429.965C315.975+429.743+316.451+429.575+316.721+429.462C316.83+429.415+316.901+429.391+316.932+429.391C316.94+429.419+316.944+429.448+316.944+429.479L316.944+433.686C316.944+434.131+316.997+434.411+317.105+434.524C317.212+434.637+317.455+434.71+317.834+434.741L317.834+434.905L314.987+434.905L314.987+434.741Z" opacity="1" fill="#000000"/>
<path d="M320.834+429.409C321.385+429.409+321.867+429.599+322.281+429.98C322.696+430.361+322.903+430.901+322.903+431.6L319.182+431.6C319.221+432.506+319.426+433.167+319.797+433.581C320.168+433.995+320.608+434.202+321.115+434.202C321.526+434.202+321.871+434.094+322.153+433.88C322.434+433.665+322.694+433.36+322.932+432.965L323.137+433.036C322.977+433.532+322.677+433.991+322.237+434.413C321.798+434.835+321.26+435.046+320.623+435.046C319.889+435.046+319.321+434.768+318.921+434.214C318.521+433.659+318.321+433.02+318.321+432.298C318.321+431.512+318.553+430.835+319.018+430.264C319.483+429.694+320.088+429.409+320.834+429.409ZM320.494+429.837C320.049+429.837+319.709+430.034+319.475+430.428C319.35+430.639+319.26+430.905+319.205+431.225L321.678+431.225C321.635+430.835+321.561+430.544+321.455+430.352C321.264+430.008+320.944+429.837+320.494+429.837Z" opacity="1" fill="#000000"/>
<path d="M328.99+429.643C328.756+429.671+328.582+429.71+328.469+429.76C328.356+429.811+328.299+429.913+328.299+430.065C328.299+430.147+328.312+430.232+328.337+430.32C328.362+430.408+328.397+430.51+328.44+430.628L329.506+433.411L330.549+430.868C330.596+430.758+330.647+430.615+330.701+430.437C330.756+430.259+330.783+430.126+330.783+430.036C330.783+429.891+330.738+429.794+330.649+429.743C330.559+429.692+330.428+429.655+330.256+429.631L330.256+429.462L331.744+429.462L331.744+429.631C331.647+429.651+331.567+429.698+331.504+429.772C331.442+429.846+331.354+430.022+331.24+430.299L329.365+434.923C329.35+434.958+329.336+434.983+329.324+434.999C329.313+435.014+329.295+435.022+329.272+435.022C329.225+434.999+329.197+434.979+329.19+434.964L327.865+431.688L326.324+434.952C326.317+434.971+326.306+434.988+326.292+435.002C326.279+435.015+326.262+435.022+326.242+435.022C326.196+434.999+326.168+434.979+326.16+434.964L324.408+430.645C324.217+430.173+324.09+429.894+324.028+429.81C323.965+429.726+323.842+429.671+323.658+429.643L323.658+429.462L325.826+429.462L325.826+429.643C325.647+429.659+325.509+429.691+325.413+429.74C325.318+429.789+325.27+429.893+325.27+430.053C325.27+430.167+325.35+430.444+325.51+430.885C325.604+431.139+325.723+431.448+325.867+431.811L326.535+433.475L327.59+431.214L327.602+431.143C327.602+431.065+327.56+430.92+327.476+430.707C327.392+430.494+327.311+430.303+327.233+430.135C327.154+429.96+327.066+429.838+326.966+429.769C326.866+429.701+326.727+429.659+326.547+429.643L326.547+429.462L328.99+429.462L328.99+429.643Z" opacity="1" fill="#000000"/>
</g>
<path stroke="#000000" stroke-width="1" d="M243.548+436.827L692.82+184.84" fill="none" stroke-linecap="round" opacity="0.458441" stroke-linejoin="round" stroke-dasharray="0,0,4"/>
</g>
</svg>
