<?xml version="1.0" encoding="UTF-8" standalone="no"?> <!-- Created with Vectornator for iOS (http://vectornator.io/) --><!DOCTYPE svg PUBLIC "-//W3C//DTD SVG 1.1//EN" "http://www.w3.org/Graphics/SVG/1.1/DTD/svg11.dtd">
<svg height="100%" style="fill-rule:nonzero;clip-rule:evenodd;stroke-linecap:round;stroke-linejoin:round;" xmlns:xlink="http://www.w3.org/1999/xlink" xmlns="http://www.w3.org/2000/svg" xml:space="preserve" width="100%" xmlns:vectornator="http://vectornator.io" version="1.1" viewBox="0 0 503.755 272.243">
<metadata>
<vectornator:setting key="DimensionsVisible" value="1"/>
<vectornator:setting key="PencilOnly" value="0"/>
<vectornator:setting key="SnapToPoints" value="0"/>
<vectornator:setting key="OutlineMode" value="0"/>
<vectornator:setting key="RulersVisible" value="1"/>
<vectornator:setting key="GuidesVisible" value="1"/>
<vectornator:setting key="SnapToEdges" value="0"/>
<vectornator:setting key="CMYKEnabledKey" value="0"/>
<vectornator:setting key="DisplayWhiteBackground" value="1"/>
<vectornator:setting key="doHistoryDisabled" value="0"/>
<vectornator:setting key="SnapToGuides" value="1"/>
<vectornator:setting key="TimeLapseWatermarkDisabled" value="0"/>
<vectornator:setting key="DynamicGuides" value="0"/>
<vectornator:setting key="IsolateActiveLayer" value="0"/>
<vectornator:setting key="SnapToGrid" value="0"/>
<vectornator:setting key="Units" value="Pixels"/>
</metadata>
<defs/>
<g id="Calque 1" vectornator:layerName="Calque 1">
<g opacity="1">
<path d="M209.744+107.322L213.041+107.322L213.041+107.564C212.781+107.57+212.588+107.593+212.463+107.635C212.223+107.703+212.104+107.835+212.104+108.033C212.104+108.106+212.117+108.18+212.143+108.256C212.169+108.331+212.216+108.445+212.283+108.596L214.111+112.65L215.58+108.564C215.596+108.523+215.621+108.429+215.654+108.283C215.688+108.137+215.705+108.038+215.705+107.986C215.705+107.851+215.658+107.752+215.565+107.689C215.471+107.627+215.351+107.591+215.205+107.58L214.963+107.564L214.963+107.322L217.111+107.322L217.111+107.564C216.898+107.591+216.738+107.663+216.631+107.783C216.524+107.903+216.432+108.07+216.354+108.283L213.893+114.799C213.466+115.924+213.057+116.739+212.666+117.244C212.275+117.749+211.781+118.002+211.182+118.002C210.89+118.002+210.617+117.929+210.361+117.783C210.106+117.637+209.979+117.406+209.979+117.088C209.979+116.88+210.055+116.709+210.209+116.576C210.363+116.443+210.557+116.377+210.791+116.377C210.927+116.377+211.128+116.426+211.397+116.525C211.665+116.624+211.856+116.674+211.971+116.674C212.262+116.674+212.57+116.335+212.893+115.658C213.216+114.981+213.377+114.528+213.377+114.299C213.377+114.252+213.369+114.195+213.354+114.127C213.338+114.059+213.32+113.999+213.299+113.947L210.799+108.541C210.622+108.156+210.467+107.902+210.334+107.779C210.201+107.657+210.005+107.578+209.744+107.541L209.744+107.322Z" opacity="1" fill="#000000"/>
</g>
<g opacity="1">
<g>
<path stroke-linecap="round" stroke-width="2.56198" stroke="#000000" d="M85.6739+36.6748C85.6739+48.7954+85.6739+160.826+85.6739+160.826" fill="none" stroke-linejoin="round"/>
<path d="M85.6739+38.9165L94.6409+45.6417L85.6739+27.7079L76.707+45.6417L85.6739+38.9165Z" fill="#000000"/>
</g>
</g>
<g opacity="1">
<g>
<path stroke-linecap="round" stroke-width="2.56198" stroke="#000000" d="M199.896+214.089C188.786+208.908+85.6739+160.826+85.6739+160.826" fill="none" stroke-linejoin="round"/>
<path d="M197.864+213.142L187.979+218.426L208.022+217.878L195.558+202.173L197.864+213.142Z" fill="#000000"/>
</g>
</g>
<g opacity="1">
<g>
<path stroke-linecap="round" stroke-width="2.56198" stroke="#000000" d="M199.896+107.564C188.786+112.745+85.6739+160.826+85.6739+160.826" fill="none" stroke-linejoin="round"/>
<path d="M197.864+108.511L195.558+119.48L208.022+103.774L187.979+103.227L197.864+108.511Z" fill="#000000"/>
</g>
</g>
<path stroke="#000000" stroke-width="1" d="M167.242+103.773L167.242+46.7195L350.769+132.3L350.769+189.353L167.242+103.773Z" fill="#a39b9b" stroke-linecap="round" fill-opacity="0.800602" opacity="1" stroke-linejoin="round"/>
<path stroke="#000000" stroke-width="1" d="M167.242+46.7195L208.025+27.7017L391.553+113.282L350.769+132.3L167.242+46.7195Z" fill="#a39b9b" stroke-linecap="round" fill-opacity="0.800602" opacity="1" stroke-linejoin="round"/>
<path stroke="#000000" stroke-width="1" d="M391.553+113.282L391.553+170.335L350.769+189.353L350.769+132.3L391.553+113.282Z" fill="#a39b9b" stroke-linecap="round" fill-opacity="0.800602" opacity="1" stroke-linejoin="round"/>
<path stroke="#000000" stroke-width="1" d="M208.025+27.7017L208.025+84.7551L391.553+170.335L391.553+113.282L208.025+27.7017Z" fill="none" stroke-linecap="round" opacity="1" stroke-linejoin="round" stroke-dasharray="3,0,0,6"/>
<path stroke="#000000" stroke-width="1" d="M167.242+103.773L208.025+84.7551L208.025+27.7017L167.242+46.7195" fill="none" stroke-linecap="round" opacity="1" stroke-linejoin="round" stroke-dasharray="3,0,0,6"/>
<path stroke="#000000" stroke-width="1" d="M167.242+103.773L167.242+160.826" fill="none" stroke-linecap="round" opacity="1" stroke-linejoin="round" stroke-dasharray="0,0,0,5"/>
<path stroke="#000000" stroke-width="1" d="M126.458+141.809L167.242+160.826" fill="none" stroke-linecap="round" opacity="1" stroke-linejoin="round" stroke-dasharray="0,0,0,5"/>
<path stroke="#000000" stroke-width="1" d="M126.458+179.844L167.242+160.826" fill="none" stroke-linecap="round" opacity="1" stroke-linejoin="round" stroke-dasharray="0,0,0,5"/>
<g opacity="1">
<g>
<path stroke-linecap="round" stroke-width="1" stroke="#000000" d="M396.771+175.324C392.861+177.148+362.334+191.382+362.334+191.382" fill="none" stroke-linejoin="round"/>
<path d="M363.127+191.012L364.027+186.731L359.162+192.861L366.985+193.075L363.127+191.012Z" fill="#000000"/>
<path d="M395.978+175.694L395.079+179.975L399.944+173.845L392.12+173.631L395.978+175.694Z" fill="#000000"/>
</g>
</g>
<g opacity="1">
<g>
<path stroke-linecap="round" stroke-width="1" stroke="#000000" d="M396.765+109.29C385.291+103.94+219.593+26.6736+219.593+26.6736" fill="none" stroke-linejoin="round"/>
<path d="M220.386+27.0434L224.244+24.9807L216.421+25.1944L221.286+31.3248L220.386+27.0434Z" fill="#000000"/>
<path d="M395.972+108.92L392.114+110.983L399.937+110.769L395.072+104.639L395.972+108.92Z" fill="#000000"/>
</g>
</g>
<g opacity="1">
<g>
<path stroke-linecap="round" stroke-width="1" stroke="#000000" d="M401.945+166.344C401.945+161.07+401.945+116.292+401.945+116.292" fill="none" stroke-linejoin="round"/>
<path d="M401.945+117.167L405.445+119.792L401.945+112.792L398.445+119.792L401.945+117.167Z" fill="#000000"/>
<path d="M401.945+165.469L398.445+162.844L401.945+169.844L405.445+162.844L401.945+165.469Z" fill="#000000"/>
</g>
</g>
<g opacity="1">
<path d="M366.447+204.282L366.672+204.797L365.213+205.437L367.005+209.565C367.163+209.927+367.315+210.188+367.458+210.347C367.717+210.626+368.013+210.692+368.347+210.546C368.519+210.471+368.65+210.365+368.741+210.228C368.832+210.092+368.92+209.9+369.005+209.652L369.26+209.728L369.196+210.012C369.095+210.454+368.936+210.805+368.72+211.065C368.504+211.325+368.267+211.511+368.009+211.624C367.446+211.87+366.955+211.787+366.535+211.374C366.306+211.15+366.086+210.797+365.875+210.316L363.975+205.979L363.195+206.321C363.165+206.317+363.141+206.311+363.122+206.302C363.104+206.292+363.09+206.276+363.079+206.252C363.058+206.204+363.053+206.163+363.063+206.127C363.073+206.092+363.114+206.001+363.187+205.855C363.397+205.439+363.538+205.115+363.609+204.881C363.68+204.648+363.827+204.051+364.048+203.09C364.11+203.063+364.149+203.051+364.165+203.055C364.181+203.06+364.203+203.093+364.23+203.155L365.001+204.915L366.447+204.282Z" opacity="1" fill="#000000"/>
<path d="M369.722+210.472C370.09+210.248+370.304+210.039+370.364+209.845C370.424+209.651+370.339+209.292+370.11+208.767L367.099+201.898C366.982+201.63+366.861+201.449+366.737+201.353C366.612+201.257+366.416+201.267+366.149+201.384C366.097+201.407+366.047+201.433+366+201.462C365.953+201.491+365.901+201.524+365.843+201.561L365.73+201.303C365.913+201.149+366.139+200.961+366.408+200.738C366.677+200.515+366.863+200.358+366.965+200.268L367.558+199.752L367.594+199.796L369.519+204.189C369.669+203.714+369.826+203.344+369.989+203.08C370.283+202.609+370.673+202.268+371.16+202.054C371.933+201.716+372.602+201.809+373.168+202.335C373.471+202.611+373.745+203.029+373.989+203.587L375.269+206.506C375.49+207.012+375.693+207.315+375.877+207.417C376.061+207.518+376.344+207.513+376.728+207.402L376.815+207.603L373.717+208.96L373.629+208.76C374.019+208.521+374.243+208.306+374.302+208.115C374.361+207.925+374.275+207.567+374.045+207.042L372.775+204.144C372.572+203.682+372.331+203.341+372.05+203.123C371.77+202.905+371.415+202.89+370.986+203.078C370.614+203.241+370.312+203.532+370.081+203.952C369.85+204.372+369.752+204.622+369.787+204.703L371.333+208.231C371.567+208.765+371.776+209.072+371.958+209.151C372.141+209.23+372.447+209.21+372.878+209.089L372.966+209.29L369.81+210.672L369.722+210.472Z" opacity="1" fill="#000000"/>
<path d="M374.163+197.753C374.073+197.548+374.067+197.34+374.145+197.13C374.224+196.919+374.368+196.768+374.578+196.676C374.783+196.586+374.99+196.582+375.199+196.664C375.408+196.745+375.559+196.891+375.651+197.101C375.741+197.306+375.745+197.513+375.663+197.723C375.582+197.932+375.438+198.082+375.233+198.171C375.023+198.263+374.815+198.268+374.608+198.185C374.401+198.102+374.253+197.958+374.163+197.753ZM377.207+207.192C377.697+206.921+377.98+206.693+378.059+206.508C378.137+206.323+378.054+205.951+377.809+205.393L376.313+201.98C376.177+201.67+376.062+201.465+375.967+201.364C375.809+201.2+375.616+201.168+375.387+201.268C375.335+201.291+375.286+201.318+375.24+201.35C375.194+201.381+375.066+201.483+374.857+201.654L374.76+201.432L375.024+201.197C375.739+200.56+376.231+200.099+376.5+199.817C376.608+199.701+376.682+199.635+376.72+199.618C376.744+199.647+376.765+199.681+376.781+199.719L379.033+204.857C379.271+205.401+379.486+205.713+379.678+205.794C379.87+205.875+380.205+205.833+380.685+205.668L380.772+205.869L377.295+207.393L377.207+207.192Z" opacity="1" fill="#000000"/>
<path d="M381.765+197.39C382.362+197.129+382.943+197.057+383.51+197.176C384.076+197.294+384.44+197.537+384.601+197.905C384.67+198.062+384.679+198.233+384.629+198.417C384.579+198.601+384.44+198.743+384.211+198.843C384.044+198.917+383.872+198.924+383.695+198.865C383.519+198.805+383.354+198.679+383.2+198.484L382.964+198.178C382.791+197.953+382.605+197.821+382.407+197.783C382.205+197.752+381.976+197.793+381.718+197.905C381.175+198.144+380.819+198.582+380.653+199.221C380.486+199.86+380.576+200.573+380.921+201.36C381.236+202.08+381.726+202.636+382.389+203.028C383.053+203.419+383.735+203.462+384.436+203.154C384.933+202.937+385.303+202.581+385.547+202.088C385.685+201.805+385.803+201.401+385.902+200.874L386.156+200.908C386.135+201.6+386.047+202.178+385.893+202.644C385.596+203.536+385.068+204.148+384.31+204.481C383.565+204.807+382.779+204.802+381.949+204.466C381.119+204.13+380.484+203.459+380.043+202.452C379.61+201.465+379.551+200.479+379.864+199.494C380.178+198.51+380.811+197.808+381.765+197.39Z" opacity="1" fill="#000000"/>
<path d="M387.525+202.671C387.969+202.437+388.237+202.228+388.33+202.045C388.424+201.862+388.383+201.573+388.21+201.177L385.068+194.007C384.92+193.668+384.768+193.478+384.614+193.438C384.46+193.397+384.275+193.424+384.061+193.518C383.97+193.558+383.892+193.595+383.828+193.629C383.763+193.663+383.692+193.703+383.615+193.748L383.528+193.547L384.096+193.093C384.531+192.749+384.895+192.445+385.189+192.18C385.367+192.016+385.473+191.927+385.507+191.912C385.535+191.9+385.556+191.898+385.568+191.907C385.58+191.916+385.596+191.941+385.615+191.984L388.252+198.002L389.469+195.388C389.556+195.196+389.607+195.051+389.624+194.953C389.641+194.855+389.636+194.777+389.611+194.72C389.563+194.61+389.479+194.564+389.359+194.583C389.239+194.601+389.038+194.664+388.755+194.771L388.667+194.57L391.651+193.263L391.739+193.463C391.219+193.731+390.836+194.025+390.59+194.346C390.344+194.667+389.946+195.452+389.395+196.699L389.143+197.271L391.219+198.408C392.281+198.989+393.047+199.348+393.517+199.487C393.987+199.625+394.422+199.626+394.823+199.49L394.905+199.676L391.721+201.071L391.633+200.871L391.877+200.747C391.956+200.707+392.023+200.657+392.077+200.6C392.131+200.542+392.144+200.479+392.114+200.413C392.091+200.36+392.058+200.316+392.014+200.281C391.971+200.247+391.915+200.21+391.847+200.172L388.349+198.224L389.509+200.872C389.653+201.201+389.871+201.367+390.163+201.37C390.335+201.374+390.596+201.302+390.947+201.154L391.041+201.369L387.613+202.871L387.525+202.671Z" opacity="1" fill="#000000"/>
<path d="M395.089+199.356C395.409+199.165+395.609+198.976+395.69+198.79C395.77+198.604+395.714+198.292+395.522+197.853L393.932+194.225C393.798+193.92+393.676+193.718+393.564+193.619C393.394+193.477+393.168+193.468+392.887+193.591C392.844+193.61+392.801+193.632+392.758+193.657C392.714+193.681+392.661+193.713+392.599+193.752L392.489+193.501C392.66+193.358+393.058+193.008+393.683+192.449L394.258+191.933C394.292+191.918+394.317+191.921+394.335+191.942C394.352+191.963+394.371+191.994+394.389+192.037L394.85+193.089C395.11+192.487+395.33+192.055+395.511+191.793C395.78+191.397+396.116+191.11+396.516+190.935C396.841+190.793+397.177+190.756+397.526+190.825C398.2+190.962+398.741+191.495+399.149+192.426L400.613+195.767C400.763+196.111+400.941+196.328+401.146+196.42C401.352+196.513+401.618+196.49+401.944+196.352L402.032+196.553L398.976+197.892L398.889+197.691C399.216+197.491+399.417+197.288+399.491+197.082C399.566+196.876+399.497+196.529+399.284+196.043L397.945+192.987C397.765+192.577+397.54+192.271+397.269+192.068C396.998+191.865+396.658+191.854+396.247+192.034C395.966+192.157+395.721+192.378+395.514+192.696C395.4+192.877+395.269+193.15+395.123+193.516L396.879+197.523C397.029+197.866+397.206+198.063+397.41+198.113C397.614+198.163+397.883+198.121+398.216+197.986L398.304+198.186L395.177+199.557L395.089+199.356Z" opacity="1" fill="#000000"/>
<path d="M402.654+188.279C403.327+187.985+404.018+187.959+404.727+188.202C405.437+188.446+405.979+188.995+406.353+189.849L401.809+191.84C402.342+192.926+402.945+193.622+403.62+193.929C404.295+194.236+404.942+194.254+405.563+193.982C406.063+193.763+406.428+193.446+406.657+193.034C406.885+192.621+407.039+192.11+407.119+191.5L407.407+191.476C407.477+192.168+407.357+192.889+407.046+193.639C406.735+194.39+406.191+194.935+405.413+195.276C404.516+195.669+403.675+195.634+402.889+195.171C402.103+194.708+401.517+194.035+401.13+193.152C400.71+192.193+400.631+191.241+400.894+190.296C401.156+189.351+401.743+188.679+402.654+188.279ZM402.468+188.984C401.924+189.222+401.615+189.645+401.54+190.252C401.5+190.576+401.532+190.949+401.637+191.369L404.657+190.046C404.395+189.592+404.149+189.276+403.917+189.099C403.5+188.782+403.017+188.743+402.468+188.984Z" opacity="1" fill="#000000"/>
<path d="M408.515+191.025L408.751+190.922C409.099+191.417+409.43+191.77+409.743+191.98C410.311+192.368+410.917+192.42+411.561+192.138C411.919+191.981+412.158+191.759+412.279+191.47C412.4+191.181+412.391+190.879+412.253+190.564C412.165+190.364+412.021+190.197+411.82+190.063C411.62+189.929+411.33+189.84+410.952+189.795L409.95+189.688C409.226+189.63+408.655+189.502+408.238+189.304C407.821+189.106+407.518+188.789+407.328+188.355C407.093+187.821+407.092+187.299+407.323+186.788C407.554+186.277+407.958+185.895+408.536+185.642C408.788+185.532+409.087+185.457+409.432+185.42C409.777+185.383+409.968+185.356+410.006+185.339C410.092+185.301+410.149+185.262+410.177+185.222C410.204+185.181+410.221+185.128+410.227+185.063L410.398+184.988L411.323+186.963L411.102+187.06C410.803+186.639+410.517+186.335+410.242+186.149C409.737+185.801+409.205+185.75+408.647+185.994C408.313+186.141+408.096+186.358+407.995+186.647C407.894+186.936+407.904+187.218+408.025+187.495C408.218+187.934+408.718+188.181+409.527+188.236L410.694+188.33C411.953+188.438+412.743+188.86+413.065+189.594C413.312+190.157+413.302+190.71+413.037+191.253C412.772+191.796+412.298+192.216+411.616+192.515C411.329+192.641+410.984+192.735+410.58+192.799C410.175+192.862+409.94+192.908+409.873+192.938C409.816+192.963+409.775+193.005+409.749+193.064C409.724+193.124+409.712+193.187+409.713+193.255L409.527+193.336L408.515+191.025Z" opacity="1" fill="#000000"/>
<path d="M414.218+188.526L414.454+188.423C414.802+188.918+415.133+189.271+415.446+189.481C416.014+189.868+416.62+189.921+417.264+189.639C417.622+189.482+417.861+189.26+417.982+188.971C418.103+188.682+418.094+188.38+417.956+188.065C417.868+187.865+417.724+187.698+417.523+187.564C417.323+187.43+417.033+187.341+416.655+187.296L415.653+187.189C414.929+187.131+414.358+187.003+413.941+186.805C413.524+186.607+413.221+186.29+413.031+185.856C412.797+185.322+412.795+184.799+413.026+184.289C413.257+183.778+413.661+183.396+414.239+183.143C414.491+183.032+414.79+182.958+415.135+182.921C415.48+182.884+415.671+182.857+415.709+182.84C415.795+182.802+415.852+182.763+415.88+182.723C415.907+182.682+415.924+182.629+415.93+182.564L416.101+182.489L417.026+184.464L416.805+184.561C416.506+184.14+416.22+183.836+415.945+183.65C415.44+183.302+414.908+183.251+414.35+183.495C414.016+183.642+413.799+183.859+413.698+184.148C413.597+184.437+413.607+184.719+413.728+184.996C413.921+185.435+414.421+185.682+415.23+185.737L416.397+185.831C417.656+185.939+418.446+186.36+418.768+187.095C419.015+187.658+419.005+188.211+418.74+188.754C418.475+189.296+418.001+189.717+417.319+190.016C417.032+190.142+416.687+190.236+416.283+190.3C415.878+190.363+415.643+190.409+415.576+190.439C415.519+190.464+415.478+190.506+415.452+190.565C415.427+190.625+415.415+190.688+415.417+190.756L415.23+190.837L414.218+188.526Z" opacity="1" fill="#000000"/>
</g>
<g opacity="1">
<path d="M413.822+144.519C414.249+144.462+414.529+144.357+414.662+144.203C414.794+144.049+414.861+143.686+414.861+143.113L414.861+135.613C414.861+135.321+414.823+135.107+414.748+134.968C414.672+134.83+414.488+134.761+414.197+134.761C414.139+134.761+414.083+134.765+414.029+134.773C413.974+134.781+413.913+134.79+413.845+134.801L413.845+134.519C414.074+134.452+414.357+134.37+414.693+134.273C415.029+134.177+415.262+134.108+415.392+134.066L416.142+133.832L416.158+133.886L416.158+138.683C416.486+138.308+416.778+138.032+417.033+137.855C417.491+137.543+417.986+137.386+418.517+137.386C419.361+137.386+419.936+137.741+420.244+138.449C420.41+138.824+420.494+139.316+420.494+139.926L420.494+143.113C420.494+143.665+420.557+144.024+420.685+144.191C420.813+144.358+421.074+144.467+421.47+144.519L421.47+144.738L418.087+144.738L418.087+144.519C418.541+144.457+418.832+144.35+418.962+144.199C419.093+144.048+419.158+143.686+419.158+143.113L419.158+139.949C419.158+139.444+419.073+139.035+418.904+138.722C418.735+138.41+418.416+138.254+417.947+138.254C417.541+138.254+417.147+138.399+416.767+138.691C416.387+138.983+416.197+139.173+416.197+139.261L416.197+143.113C416.197+143.696+416.264+144.061+416.4+144.207C416.535+144.353+416.824+144.457+417.267+144.519L417.267+144.738L413.822+144.738L413.822+144.519Z" opacity="1" fill="#000000"/>
<path d="M425.345+137.41C426.08+137.41+426.723+137.664+427.275+138.172C427.827+138.679+428.103+139.399+428.103+140.332L423.142+140.332C423.194+141.54+423.468+142.42+423.962+142.972C424.457+143.524+425.043+143.801+425.72+143.801C426.267+143.801+426.728+143.657+427.103+143.371C427.478+143.084+427.824+142.678+428.142+142.152L428.416+142.246C428.202+142.907+427.802+143.519+427.216+144.082C426.63+144.644+425.913+144.926+425.064+144.926C424.085+144.926+423.328+144.556+422.794+143.816C422.261+143.077+421.994+142.225+421.994+141.261C421.994+140.215+422.304+139.311+422.923+138.551C423.543+137.79+424.35+137.41+425.345+137.41ZM424.892+137.98C424.298+137.98+423.845+138.243+423.533+138.769C423.366+139.051+423.246+139.405+423.173+139.832L426.47+139.832C426.413+139.311+426.314+138.923+426.173+138.668C425.918+138.209+425.491+137.98+424.892+137.98Z" opacity="1" fill="#000000"/>
<path d="M430.095+134.652C430.095+134.428+430.173+134.235+430.33+134.074C430.486+133.913+430.679+133.832+430.908+133.832C431.132+133.832+431.323+133.911+431.482+134.07C431.641+134.229+431.72+134.423+431.72+134.652C431.72+134.876+431.641+135.067+431.482+135.226C431.323+135.385+431.132+135.465+430.908+135.465C430.679+135.465+430.486+135.385+430.33+135.226C430.173+135.067+430.095+134.876+430.095+134.652ZM429.095+144.519C429.653+144.467+430.004+144.372+430.15+144.234C430.296+144.096+430.369+143.722+430.369+143.113L430.369+139.386C430.369+139.048+430.345+138.814+430.298+138.683C430.22+138.47+430.056+138.363+429.806+138.363C429.749+138.363+429.693+138.368+429.638+138.379C429.583+138.389+429.426+138.431+429.166+138.504L429.166+138.261L429.501+138.152C430.413+137.855+431.048+137.631+431.408+137.48C431.554+137.418+431.647+137.386+431.689+137.386C431.699+137.423+431.705+137.462+431.705+137.504L431.705+143.113C431.705+143.707+431.776+144.079+431.919+144.23C432.063+144.381+432.387+144.478+432.892+144.519L432.892+144.738L429.095+144.738L429.095+144.519Z" opacity="1" fill="#000000"/>
<path d="M434.798+146.183C434.798+146.621+435.044+146.923+435.537+147.09C436.029+147.256+436.593+147.34+437.228+147.34C438.093+147.34+438.796+147.19+439.337+146.89C439.879+146.591+440.15+146.222+440.15+145.785C440.15+145.436+439.931+145.204+439.494+145.09C439.223+145.022+438.71+144.983+437.955+144.972C437.762+144.967+437.559+144.961+437.345+144.953C437.132+144.945+436.936+144.936+436.759+144.926C436.645+144.92+436.46+144.899+436.205+144.863C435.949+144.827+435.759+144.795+435.634+144.769C435.572+144.769+435.418+144.933+435.173+145.261C434.923+145.595+434.798+145.902+434.798+146.183ZM435.814+142.113C435.34+141.957+434.972+141.678+434.708+141.277C434.445+140.876+434.314+140.426+434.314+139.926C434.314+139.316+434.556+138.738+435.041+138.191C435.525+137.644+436.21+137.371+437.095+137.371C437.475+137.371+437.895+137.461+438.353+137.64C438.811+137.82+439.251+137.91+439.673+137.91C439.783+137.91+439.948+137.906+440.169+137.898C440.391+137.89+440.551+137.886+440.65+137.886L440.744+137.886L440.744+138.519L439.392+138.519C439.486+138.738+439.559+138.928+439.611+139.09C439.699+139.392+439.744+139.678+439.744+139.949C439.744+140.543+439.498+141.088+439.005+141.586C438.513+142.083+437.85+142.332+437.017+142.332C436.887+142.332+436.653+142.308+436.314+142.261C436.163+142.261+435.964+142.389+435.716+142.644C435.469+142.899+435.345+143.108+435.345+143.269C435.345+143.436+435.528+143.558+435.892+143.636C436.132+143.689+436.397+143.715+436.689+143.715C438.028+143.715+438.936+143.79+439.416+143.941C440.202+144.186+440.595+144.712+440.595+145.519C440.595+146.342+440.136+146.998+439.216+147.488C438.297+147.978+437.369+148.222+436.431+148.222C435.577+148.222+434.9+148.049+434.4+147.703C433.9+147.357+433.65+146.993+433.65+146.613C433.65+146.426+433.716+146.242+433.849+146.062C433.982+145.883+434.244+145.616+434.634+145.261L435.15+144.801L435.244+144.707C435.004+144.613+434.824+144.522+434.705+144.433C434.496+144.272+434.392+144.087+434.392+143.879C434.392+143.686+434.482+143.474+434.662+143.242C434.841+143.01+435.225+142.634+435.814+142.113ZM437.298+141.957C437.585+141.957+437.824+141.879+438.017+141.722C438.33+141.472+438.486+141.038+438.486+140.418C438.486+139.923+438.36+139.366+438.107+138.746C437.854+138.126+437.434+137.816+436.845+137.816C436.335+137.816+435.983+138.058+435.791+138.543C435.692+138.798+435.642+139.113+435.642+139.488C435.642+140.123+435.796+140.694+436.103+141.199C436.41+141.704+436.809+141.957+437.298+141.957Z" opacity="1" fill="#000000"/>
<path d="M441.369+144.519C441.796+144.462+442.076+144.357+442.208+144.203C442.341+144.049+442.408+143.686+442.408+143.113L442.408+135.613C442.408+135.321+442.37+135.107+442.294+134.968C442.219+134.83+442.035+134.761+441.744+134.761C441.686+134.761+441.63+134.765+441.576+134.773C441.521+134.781+441.46+134.79+441.392+134.801L441.392+134.519C441.621+134.452+441.904+134.37+442.24+134.273C442.576+134.177+442.809+134.108+442.939+134.066L443.689+133.832L443.705+133.886L443.705+138.683C444.033+138.308+444.324+138.032+444.58+137.855C445.038+137.543+445.533+137.386+446.064+137.386C446.908+137.386+447.483+137.741+447.791+138.449C447.957+138.824+448.041+139.316+448.041+139.926L448.041+143.113C448.041+143.665+448.104+144.024+448.232+144.191C448.36+144.358+448.621+144.467+449.017+144.519L449.017+144.738L445.634+144.738L445.634+144.519C446.087+144.457+446.379+144.35+446.509+144.199C446.639+144.048+446.705+143.686+446.705+143.113L446.705+139.949C446.705+139.444+446.62+139.035+446.451+138.722C446.281+138.41+445.962+138.254+445.494+138.254C445.087+138.254+444.694+138.399+444.314+138.691C443.934+138.983+443.744+139.173+443.744+139.261L443.744+143.113C443.744+143.696+443.811+144.061+443.947+144.207C444.082+144.353+444.371+144.457+444.814+144.519L444.814+144.738L441.369+144.738L441.369+144.519Z" opacity="1" fill="#000000"/>
<path d="M453.298+137.535L453.298+138.097L451.705+138.097L451.689+142.597C451.689+142.993+451.723+143.293+451.791+143.496C451.916+143.855+452.16+144.035+452.525+144.035C452.712+144.035+452.875+143.991+453.013+143.902C453.151+143.814+453.309+143.673+453.486+143.48L453.689+143.652L453.517+143.886C453.246+144.251+452.96+144.509+452.658+144.66C452.356+144.811+452.064+144.886+451.783+144.886C451.168+144.886+450.751+144.613+450.533+144.066C450.413+143.769+450.353+143.358+450.353+142.832L450.353+138.097L449.501+138.097C449.475+138.082+449.456+138.066+449.443+138.051C449.43+138.035+449.423+138.014+449.423+137.988C449.423+137.936+449.435+137.896+449.458+137.867C449.482+137.838+449.556+137.772+449.681+137.668C450.041+137.371+450.3+137.13+450.458+136.945C450.617+136.76+450.991+136.272+451.58+135.48C451.647+135.48+451.688+135.485+451.701+135.496C451.714+135.506+451.72+135.545+451.72+135.613L451.72+137.535L453.298+137.535Z" opacity="1" fill="#000000"/>
</g>
<g opacity="1">
<path d="M307.639+49.5323C307.335+49.4547+307.099+49.4206+306.934+49.4299C306.769+49.4392+306.65+49.5387+306.577+49.7285C306.538+49.8306+306.514+49.9425+306.504+50.064C306.493+50.1856+306.487+50.3295+306.485+50.496L306.487+54.47L308.997+51.7996C309.108+51.6857+309.239+51.5311+309.392+51.3358C309.545+51.1405+309.643+50.9869+309.685+50.875C309.754+50.695+309.745+50.552+309.657+50.446C309.569+50.34+309.424+50.2314+309.221+50.1204L309.302+49.9088L311.156+50.6175L311.075+50.8291C310.944+50.8069+310.822+50.8272+310.709+50.8899C310.595+50.9525+310.402+51.1296+310.129+51.421L305.592+56.2857C305.556+56.322+305.527+56.3471+305.505+56.361C305.483+56.3749+305.457+56.3763+305.428+56.3651C305.381+56.3136+305.356+56.2762+305.354+56.2531L305.265+51.5433L301.791+54.874C301.772+54.8946+301.751+54.9102+301.727+54.9207C301.704+54.9312+301.68+54.9318+301.656+54.9225C301.608+54.871+301.584+54.8337+301.581+54.8105L301.456+48.5982C301.443+47.9184+301.417+47.5113+301.379+47.3769C301.341+47.2426+301.215+47.1147+300.999+46.9932L301.085+46.767L303.785+47.7994L303.699+48.0256C303.468+47.9595+303.281+47.934+303.138+47.9493C302.996+47.9645+302.887+48.0718+302.81+48.2713C302.756+48.4124+302.724+48.7959+302.713+49.4219C302.709+49.7828+302.711+50.2238+302.718+50.7451L302.757+53.1356L305.148+50.8211L305.196+50.7391C305.233+50.6418+305.25+50.4406+305.247+50.1355C305.243+49.8303+305.233+49.5546+305.216+49.3082C305.202+49.0521+305.15+48.8577+305.058+48.7252C304.967+48.5926+304.813+48.4738+304.596+48.3688L304.683+48.1426L307.726+49.3061L307.639+49.5323Z" opacity="1" fill="#000000"/>
<path d="M313.808+48.6037C313.888+48.3945+314.029+48.2424+314.233+48.1474C314.437+48.0524+314.645+48.0458+314.859+48.1277C315.069+48.2077+315.219+48.3502+315.311+48.5553C315.402+48.7604+315.407+48.97+315.325+49.1841C315.245+49.3933+315.103+49.5437+314.898+49.6353C314.693+49.727+314.486+49.7328+314.276+49.6528C314.062+49.571+313.911+49.4279+313.821+49.2238C313.732+49.0196+313.728+48.8129+313.808+48.6037ZM309.349+57.463C309.889+57.6134+310.251+57.6501+310.436+57.5733C310.622+57.4965+310.824+57.1735+311.041+56.6043L312.372+53.1235C312.493+52.8073+312.555+52.58+312.558+52.4416C312.561+52.2143+312.446+52.0559+312.212+51.9667C312.159+51.9462+312.105+51.9311+312.05+51.9213C311.995+51.9115+311.833+51.8941+311.564+51.8692L311.65+51.643L312.003+51.6608C312.96+51.709+313.634+51.7268+314.023+51.7141C314.182+51.7078+314.281+51.7121+314.32+51.7269C314.316+51.7647+314.307+51.8031+314.292+51.842L312.289+57.0814C312.077+57.636+312.011+58.0094+312.091+58.2016C312.17+58.3939+312.439+58.5997+312.896+58.819L312.818+59.0233L309.271+57.6673L309.349+57.463Z" opacity="1" fill="#000000"/>
<path d="M319.308+53.6007C319.663+53.7365+319.959+53.939+320.196+54.2081C320.352+54.3847+320.485+54.5974+320.596+54.8462L321.483+52.5257C321.597+52.2289+321.642+52.012+321.619+51.875C321.596+51.738+321.461+51.6221+321.213+51.5272C321.154+51.5049+321.102+51.4878+321.057+51.4759C321.011+51.4641+320.91+51.4366+320.754+51.3935L320.846+51.1527L321.503+51.2283C321.744+51.2536+321.986+51.2765+322.229+51.297C322.472+51.3174+322.688+51.3301+322.875+51.335C322.963+51.3404+323.109+51.3435+323.315+51.3442L323.353+51.3755L323.046+52.1362C322.935+52.4116+322.821+52.6955+322.703+52.988C322.586+53.2805+322.472+53.5702+322.363+53.8572L320.068+59.8135C319.948+60.1297+319.902+60.3659+319.931+60.5222C319.961+60.6784+320.143+60.8207+320.479+60.9491C320.533+60.9695+320.587+60.9888+320.641+61.0068C320.695+61.0249+320.751+61.0392+320.809+61.05L320.716+61.2908C320.684+61.2893+320.284+61.2761+319.519+61.251L318.209+61.2435L318.183+61.1583L318.526+60.2608C318.14+60.4533+317.823+60.5747+317.575+60.625C317.136+60.7081+316.683+60.6604+316.216+60.4818C315.389+60.1656+314.842+59.5895+314.573+58.7535C314.304+57.9175+314.331+57.0787+314.653+56.2371C315.056+55.1814+315.71+54.393+316.615+53.8718C317.52+53.3507+318.417+53.2603+319.308+53.6007ZM317.189+59.9504C317.569+60.0955+317.918+60.1008+318.237+59.9663C318.556+59.8318+318.754+59.6648+318.83+59.4654L320.027+56.3348C320.269+55.7024+320.27+55.1914+320.032+54.8019C319.793+54.4123+319.513+54.1562+319.192+54.0334C318.579+53.799+317.999+53.8879+317.451+54.3001C316.903+54.7124+316.477+55.315+316.174+56.1079C315.875+56.8912+315.789+57.6586+315.917+58.4101C316.045+59.1617+316.469+59.6751+317.189+59.9504Z" opacity="1" fill="#000000"/>
<path d="M326.978+56.7262L326.778+57.2516L325.289+56.6824L323.667+60.88C323.526+61.2497+323.45+61.5416+323.441+61.7555C323.43+62.1358+323.594+62.3911+323.935+62.5213C324.11+62.5882+324.277+62.605+324.438+62.5716C324.599+62.5382+324.796+62.4631+325.03+62.3464L325.159+62.5795L324.914+62.737C324.531+62.9808+324.171+63.1193+323.835+63.1525C323.499+63.1857+323.2+63.152+322.937+63.0516C322.363+62.8321+322.072+62.4279+322.063+61.8389C322.057+61.5189+322.148+61.1132+322.336+60.6218L324.026+56.1997L323.231+55.8955C323.212+55.8716+323.2+55.8501+323.193+55.8308C323.186+55.8116+323.188+55.7898+323.197+55.7655C323.216+55.7168+323.241+55.6833+323.273+55.6649C323.305+55.6465+323.398+55.611+323.552+55.5584C323.994+55.4094+324.322+55.277+324.537+55.161C324.751+55.045+325.274+54.7224+326.107+54.1932C326.17+54.2174+326.206+54.2366+326.214+54.251C326.223+54.2654+326.215+54.3042+326.191+54.3675L325.504+56.1626L326.978+56.7262Z" opacity="1" fill="#000000"/>
<path d="M324.966+63.4341C325.385+63.5331+325.684+63.5346+325.863+63.4385C326.042+63.3424+326.234+63.0268+326.438+62.4917L329.117+55.4863C329.221+55.2139+329.263+54.9997+329.241+54.8439C329.22+54.688+329.073+54.5579+328.801+54.4538C328.747+54.4333+328.694+54.417+328.64+54.4047C328.586+54.3925+328.525+54.3791+328.459+54.3647L328.559+54.102C328.797+54.1206+329.09+54.1449+329.439+54.1749C329.787+54.2049+330.029+54.2236+330.166+54.2312L330.95+54.2802L330.945+54.3368L329.232+58.8173C329.672+58.5843+330.043+58.4306+330.345+58.3563C330.885+58.2281+331.402+58.2589+331.899+58.4486C332.687+58.75+333.098+59.2863+333.132+60.0577C333.154+60.4675+333.056+60.957+332.838+61.5262L331.7+64.5035C331.502+65.0191+331.434+65.3776+331.493+65.5788C331.553+65.7801+331.758+65.9757+332.11+66.1657L332.031+66.3701L328.872+65.1619L328.95+64.9576C329.395+65.061+329.706+65.0655+329.882+64.9709C330.057+64.8763+330.247+64.5615+330.452+64.0263L331.582+61.0709C331.762+60.5991+331.829+60.1869+331.783+59.8346C331.736+59.4822+331.494+59.2224+331.056+59.055C330.677+58.9099+330.257+58.9056+329.798+59.0423C329.339+59.1789+329.093+59.2886+329.062+59.3713L327.686+62.9688C327.478+63.5137+327.411+63.8784+327.485+64.063C327.56+64.2476+327.792+64.4481+328.184+64.6646L328.106+64.8689L324.887+63.6384L324.966+63.4341Z" opacity="1" fill="#000000"/>
</g>
<path stroke="#000000" stroke-width="1" d="M167.242+103.773L126.458+84.7551" fill="none" stroke-linecap="round" opacity="1" stroke-linejoin="round" stroke-dasharray="0,0,0,4"/>
<path stroke="#000000" stroke-width="1" d="M85.6739+103.773L126.458+84.7551" fill="none" stroke-linecap="round" opacity="1" stroke-linejoin="round" stroke-dasharray="0,0,0,4"/>
<g opacity="1">
<path d="M11.5609+105.318C11.6963+105.672+11.8981+105.936+12.1664+106.111C12.4346+106.285+12.751+106.372+13.1156+106.372C13.6781+106.372+14.1586+106.092+14.557+105.532C14.9554+104.973+15.1547+104.193+15.1547+103.193C15.1547+102.234+14.9476+101.518+14.5336+101.044C14.1195+100.57+13.639+100.333+13.0922+100.333C12.7067+100.333+12.3552+100.452+12.0375+100.689C11.7198+100.926+11.5609+101.159+11.5609+101.388L11.5609+105.318ZM9.07653+109.982C9.56612+109.95+9.87731+109.846+10.0101+109.669C10.1429+109.492+10.2093+109.213+10.2093+108.833L10.2093+101.333C10.2093+100.937+10.1612+100.684+10.0648+100.572C9.96846+100.46+9.78747+100.404+9.52184+100.404C9.46455+100.404+9.41117+100.406+9.36169+100.411C9.31221+100.417+9.24059+100.427+9.14684+100.443L9.14684+100.185L9.88903+99.9426C9.91507+99.9374+10.4385+99.7577+11.4593+99.4036C11.4854+99.4036+11.5049+99.4153+11.5179+99.4387C11.531+99.4622+11.5375+99.4895+11.5375+99.5208L11.5375+100.575C11.8812+100.232+12.1833+99.9765+12.4437+99.8098C12.9125+99.5182+13.3942+99.3723+13.889+99.3723C14.6078+99.3723+15.2263+99.6783+15.7445+100.29C16.2627+100.902+16.5218+101.74+16.5218+102.802C16.5218+103.844+16.2106+104.789+15.5883+105.638C14.9659+106.487+14.1833+106.911+13.2406+106.911C12.9489+106.911+12.6963+106.875+12.4828+106.802C12.1494+106.693+11.8422+106.492+11.5609+106.2L11.5609+108.755C11.5609+109.281+11.6468+109.604+11.8187+109.724C11.9906+109.844+12.3656+109.924+12.9437+109.966L12.9437+110.24L9.07653+110.24L9.07653+109.982Z" opacity="1" fill="#000000"/>
<path d="M17.4125+103.13C17.4125+102.094+17.7419+101.217+18.4008+100.501C19.0596+99.7851+19.9073+99.427+20.9437+99.427C21.975+99.427+22.8291+99.7656+23.5062+100.443C24.1833+101.12+24.5218+102.021+24.5218+103.146C24.5218+104.182+24.1937+105.083+23.5375+105.849C22.8812+106.615+22.0323+106.997+20.9906+106.997C19.9906+106.997+19.1442+106.63+18.4515+105.896C17.7588+105.161+17.4125+104.24+17.4125+103.13ZM20.725+99.8958C20.3135+99.8958+19.9567+100.031+19.6547+100.302C19.1338+100.776+18.8734+101.594+18.8734+102.755C18.8734+103.682+19.083+104.547+19.5023+105.349C19.9216+106.151+20.5036+106.552+21.2484+106.552C21.8317+106.552+22.281+106.284+22.5961+105.747C22.9112+105.211+23.0687+104.508+23.0687+103.638C23.0687+102.737+22.8682+101.888+22.4672+101.091C22.0661+100.294+21.4854+99.8958+20.725+99.8958Z" opacity="1" fill="#000000"/>
<path d="M25.8343+104.294L26.0922+104.294C26.2119+104.888+26.3734+105.344+26.5765+105.661C26.9411+106.245+27.475+106.536+28.1781+106.536C28.5687+106.536+28.8773+106.428+29.1039+106.212C29.3304+105.996+29.4437+105.716+29.4437+105.372C29.4437+105.154+29.3786+104.943+29.2484+104.74C29.1182+104.536+28.889+104.338+28.5609+104.146L27.6859+103.646C27.0453+103.302+26.5739+102.956+26.2718+102.607C25.9698+102.258+25.8187+101.846+25.8187+101.372C25.8187+100.789+26.0271+100.31+26.4437+99.9348C26.8604+99.5598+27.3838+99.3723+28.014+99.3723C28.2901+99.3723+28.5935+99.4244+28.9242+99.5286C29.2549+99.6327+29.4411+99.6848+29.4828+99.6848C29.5765+99.6848+29.6442+99.6718+29.6859+99.6458C29.7276+99.6197+29.764+99.5781+29.7953+99.5208L29.9828+99.5208L30.0375+101.7L29.7953+101.7C29.6911+101.195+29.5505+100.802+29.3734+100.521C29.0505+99.9999+28.5843+99.7395+27.975+99.7395C27.6104+99.7395+27.3239+99.8515+27.1156+100.075C26.9073+100.299+26.8031+100.562+26.8031+100.865C26.8031+101.344+27.1625+101.771+27.8812+102.146L28.9125+102.7C30.0218+103.305+30.5765+104.008+30.5765+104.81C30.5765+105.424+30.3461+105.927+29.8851+106.318C29.4242+106.708+28.8213+106.904+28.0765+106.904C27.764+106.904+27.4099+106.851+27.014+106.747C26.6182+106.643+26.3838+106.591+26.3109+106.591C26.2484+106.591+26.1937+106.613+26.1468+106.657C26.1+106.702+26.0635+106.755+26.0375+106.818L25.8343+106.818L25.8343+104.294Z" opacity="1" fill="#000000"/>
<path d="M32.5453+96.6692C32.5453+96.4452+32.6234+96.2525+32.7797+96.0911C32.9359+95.9296+33.1286+95.8489+33.3578+95.8489C33.5817+95.8489+33.7731+95.9283+33.932+96.0872C34.0909+96.246+34.1703+96.44+34.1703+96.6692C34.1703+96.8932+34.0909+97.0846+33.932+97.2434C33.7731+97.4023+33.5817+97.4817+33.3578+97.4817C33.1286+97.4817+32.9359+97.4023+32.7797+97.2434C32.6234+97.0846+32.5453+96.8932+32.5453+96.6692ZM31.5453+106.536C32.1026+106.484+32.4541+106.389+32.6+106.251C32.7458+106.113+32.8187+105.74+32.8187+105.13L32.8187+101.404C32.8187+101.065+32.7953+100.831+32.7484+100.7C32.6703+100.487+32.5062+100.38+32.2562+100.38C32.1989+100.38+32.1429+100.385+32.0883+100.396C32.0336+100.406+31.876+100.448+31.6156+100.521L31.6156+100.279L31.9515+100.169C32.863+99.8723+33.4984+99.6484+33.8578+99.4973C34.0036+99.4348+34.0974+99.4036+34.139+99.4036C34.1494+99.44+34.1547+99.4791+34.1547+99.5208L34.1547+105.13C34.1547+105.724+34.2263+106.096+34.3695+106.247C34.5127+106.398+34.8369+106.495+35.3422+106.536L35.3422+106.755L31.5453+106.755L31.5453+106.536Z" opacity="1" fill="#000000"/>
<path d="M39.7484+99.552L39.7484+100.115L38.1547+100.115L38.139+104.615C38.139+105.01+38.1729+105.31+38.2406+105.513C38.3656+105.872+38.6104+106.052+38.975+106.052C39.1625+106.052+39.3252+106.008+39.4633+105.919C39.6013+105.831+39.7588+105.69+39.9359+105.497L40.139+105.669L39.9672+105.904C39.6963+106.268+39.4099+106.526+39.1078+106.677C38.8057+106.828+38.514+106.904+38.2328+106.904C37.6182+106.904+37.2015+106.63+36.9828+106.083C36.863+105.786+36.8031+105.375+36.8031+104.849L36.8031+100.115L35.9515+100.115C35.9255+100.099+35.906+100.083+35.8929+100.068C35.8799+100.052+35.8734+100.031+35.8734+100.005C35.8734+99.9531+35.8851+99.9127+35.9086+99.884C35.932+99.8554+36.0062+99.789+36.1312+99.6848C36.4906+99.388+36.7497+99.1471+36.9086+98.9622C37.0674+98.7773+37.4411+98.289+38.0297+97.4973C38.0974+97.4973+38.1377+97.5025+38.1508+97.513C38.1638+97.5234+38.1703+97.5624+38.1703+97.6301L38.1703+99.552L39.7484+99.552Z" opacity="1" fill="#000000"/>
<path d="M41.4359+96.6692C41.4359+96.4452+41.514+96.2525+41.6703+96.0911C41.8265+95.9296+42.0192+95.8489+42.2484+95.8489C42.4724+95.8489+42.6638+95.9283+42.8226+96.0872C42.9815+96.246+43.0609+96.44+43.0609+96.6692C43.0609+96.8932+42.9815+97.0846+42.8226+97.2434C42.6638+97.4023+42.4724+97.4817+42.2484+97.4817C42.0192+97.4817+41.8265+97.4023+41.6703+97.2434C41.514+97.0846+41.4359+96.8932+41.4359+96.6692ZM40.4359+106.536C40.9932+106.484+41.3448+106.389+41.4906+106.251C41.6364+106.113+41.7093+105.74+41.7093+105.13L41.7093+101.404C41.7093+101.065+41.6859+100.831+41.639+100.7C41.5609+100.487+41.3968+100.38+41.1468+100.38C41.0896+100.38+41.0336+100.385+40.9789+100.396C40.9242+100.406+40.7666+100.448+40.5062+100.521L40.5062+100.279L40.8422+100.169C41.7536+99.8723+42.389+99.6484+42.7484+99.4973C42.8942+99.4348+42.988+99.4036+43.0297+99.4036C43.0401+99.44+43.0453+99.4791+43.0453+99.5208L43.0453+105.13C43.0453+105.724+43.1169+106.096+43.2601+106.247C43.4034+106.398+43.7276+106.495+44.2328+106.536L44.2328+106.755L40.4359+106.755L40.4359+106.536Z" opacity="1" fill="#000000"/>
<path d="M44.975+103.13C44.975+102.094+45.3044+101.217+45.9633+100.501C46.6221+99.7851+47.4698+99.427+48.5062+99.427C49.5375+99.427+50.3916+99.7656+51.0687+100.443C51.7458+101.12+52.0843+102.021+52.0843+103.146C52.0843+104.182+51.7562+105.083+51.1+105.849C50.4437+106.615+49.5948+106.997+48.5531+106.997C47.5531+106.997+46.7067+106.63+46.014+105.896C45.3213+105.161+44.975+104.24+44.975+103.13ZM48.2875+99.8958C47.876+99.8958+47.5192+100.031+47.2172+100.302C46.6963+100.776+46.4359+101.594+46.4359+102.755C46.4359+103.682+46.6455+104.547+47.0648+105.349C47.4841+106.151+48.0661+106.552+48.8109+106.552C49.3942+106.552+49.8435+106.284+50.1586+105.747C50.4737+105.211+50.6312+104.508+50.6312+103.638C50.6312+102.737+50.4307+101.888+50.0297+101.091C49.6286+100.294+49.0479+99.8958+48.2875+99.8958Z" opacity="1" fill="#000000"/>
<path d="M52.8578+106.536C53.2276+106.49+53.4867+106.397+53.6351+106.259C53.7836+106.121+53.8578+105.812+53.8578+105.333L53.8578+101.372C53.8578+101.039+53.8265+100.805+53.764+100.669C53.6651+100.471+53.4619+100.372+53.1547+100.372C53.1078+100.372+53.0596+100.375+53.0101+100.38C52.9606+100.385+52.8994+100.393+52.8265+100.404L52.8265+100.13C53.0401+100.068+53.5453+99.9062+54.3422+99.6458L55.0765+99.4036C55.113+99.4036+55.1351+99.4166+55.1429+99.4426C55.1508+99.4687+55.1547+99.5051+55.1547+99.552L55.1547+100.7C55.6338+100.253+56.0088+99.9452+56.2797+99.7786C56.6859+99.5234+57.1078+99.3958+57.5453+99.3958C57.8994+99.3958+58.2224+99.4973+58.514+99.7005C59.0765+100.096+59.3578+100.802+59.3578+101.818L59.3578+105.466C59.3578+105.841+59.4333+106.112+59.5843+106.279C59.7354+106.445+59.988+106.531+60.3422+106.536L60.3422+106.755L57.0062+106.755L57.0062+106.536C57.3864+106.484+57.6521+106.379+57.8031+106.22C57.9541+106.061+58.0297+105.716+58.0297+105.185L58.0297+101.849C58.0297+101.401+57.9463+101.03+57.7797+100.736C57.613+100.441+57.3057+100.294+56.8578+100.294C56.5505+100.294+56.238+100.398+55.9203+100.607C55.7432+100.726+55.514+100.924+55.2328+101.2L55.2328+105.575C55.2328+105.95+55.3161+106.202+55.4828+106.329C55.6494+106.457+55.9125+106.526+56.2718+106.536L56.2718+106.755L52.8578+106.755L52.8578+106.536Z" opacity="1" fill="#000000"/>
<path d="M61.975+96.1692L65.3422+96.1692L65.3422+96.552L63.9203+96.552C63.6078+96.552+63.3968+96.651+63.2875+96.8489C63.225+96.9531+63.1937+97.0963+63.1937+97.2786L63.1937+108.036C63.1937+108.276+63.2276+108.453+63.2953+108.568C63.4099+108.771+63.6364+108.872+63.975+108.872L65.3422+108.872L65.3422+109.279L61.975+109.279L61.975+96.1692Z" opacity="1" fill="#000000"/>
<path d="M66.3734+106.575C68.2797+104.596+69.5739+103.143+70.2562+102.216C70.9385+101.289+71.2797+100.385+71.2797+99.5051C71.2797+98.7343+71.0713+98.1471+70.6547+97.7434C70.238+97.3398+69.7406+97.138+69.1625+97.138C68.4489+97.138+67.8708+97.3984+67.4281+97.9192C67.1833+98.2057+66.9489+98.6458+66.725+99.2395L66.389+99.1692C66.6494+97.9713+67.0909+97.1393+67.7133+96.6731C68.3356+96.207+69.0036+95.9739+69.7172+95.9739C70.5974+95.9739+71.3096+96.2512+71.8539+96.8059C72.3981+97.3606+72.6703+98.039+72.6703+98.8411C72.6703+99.6952+72.376+100.518+71.7875+101.31C71.1989+102.101+69.9203+103.51+67.9515+105.536L71.5375+105.536C72.0375+105.536+72.389+105.476+72.5922+105.357C72.7953+105.237+73.0244+104.945+73.2797+104.482L73.4828+104.575L72.6156+106.755L66.3734+106.755L66.3734+106.575Z" opacity="1" fill="#000000"/>
<path d="M77.8031+109.279L74.4281+109.279L74.4281+108.888L75.8578+108.888C76.1651+108.888+76.376+108.792+76.4906+108.599C76.5479+108.495+76.5765+108.351+76.5765+108.169L76.5765+97.4036C76.5765+97.1484+76.5258+96.9465+76.4242+96.7981C76.3226+96.6497+76.1156+96.5755+75.8031+96.5755L74.4281+96.5755L74.4281+96.1692L77.8031+96.1692L77.8031+109.279Z" opacity="1" fill="#000000"/>
</g>
<g opacity="1">
<path d="M89.5389+180.752C89.4971+181.128+89.5555+181.456+89.714+181.734C89.8726+182.012+90.1139+182.234+90.438+182.401C90.9381+182.659+91.4934+182.63+92.104+182.314C92.7146+181.999+93.2489+181.397+93.7068+180.508C94.1456+179.656+94.2895+178.925+94.1384+178.314C93.9874+177.703+93.6687+177.272+93.1826+177.022C92.8399+176.845+92.4731+176.789+92.0822+176.855C91.6912+176.92+91.4433+177.054+91.3383+177.258L89.5389+180.752ZM85.1945+183.76C85.6441+183.957+85.9684+184.007+86.1676+183.91C86.3667+183.813+86.5534+183.596+86.7275+183.258L90.1619+176.591C90.3431+176.239+90.4166+175.991+90.3822+175.847C90.3478+175.704+90.2125+175.571+89.9764+175.449C89.9255+175.423+89.8768+175.401+89.8304+175.383C89.7841+175.365+89.7156+175.341+89.6251+175.312L89.7432+175.083L90.5139+175.208C90.5394+175.215+91.087+175.295+92.1567+175.447C92.1799+175.459+92.1919+175.479+92.1927+175.506C92.1936+175.532+92.1868+175.56+92.1725+175.587L91.6896+176.525C92.1526+176.377+92.538+176.288+92.8458+176.259C93.3961+176.215+93.8912+176.306+94.331+176.532C94.97+176.861+95.3797+177.417+95.5602+178.198C95.7406+178.979+95.5876+179.842+95.1011+180.787C94.6241+181.713+93.9146+182.411+92.9725+182.88C92.0304+183.35+91.1404+183.369+90.3023+182.938C90.043+182.804+89.8351+182.656+89.6787+182.493C89.4325+182.243+89.2511+181.924+89.1346+181.536L87.9648+183.807C87.7239+184.275+87.6524+184.602+87.7504+184.787C87.8483+184.972+88.1447+185.215+88.6396+185.517L88.5144+185.76L85.0765+183.989L85.1945+183.76Z" opacity="1" fill="#000000"/>
<path d="M95.7426+181.486C96.2172+180.565+96.9113+179.937+97.825+179.602C98.7386+179.267+99.6562+179.337+100.578+179.811C101.494+180.284+102.099+180.976+102.391+181.888C102.682+182.8+102.571+183.756+102.056+184.756C101.581+185.677+100.877+186.328+99.9427+186.708C99.0087+187.088+98.0787+187.04+97.1527+186.563C96.2637+186.105+95.6794+185.391+95.3999+184.421C95.1203+183.451+95.2346+182.473+95.7426+181.486ZM100.168+180.128C99.8027+179.939+99.4235+179.896+99.0309+179.999C98.3509+180.182+97.7449+180.789+97.2131+181.822C96.7885+182.646+96.579+183.511+96.5844+184.416C96.5899+185.321+96.9237+185.944+97.5858+186.285C98.1044+186.552+98.6265+186.519+99.1523+186.187C99.6781+185.854+100.14+185.301+100.538+184.528C100.951+183.727+101.162+182.88+101.17+181.988C101.178+181.096+100.844+180.476+100.168+180.128Z" opacity="1" fill="#000000"/>
<path d="M102.697+186.378L102.926+186.496C102.76+187.078+102.695+187.558+102.73+187.933C102.787+188.619+103.128+189.122+103.753+189.444C104.101+189.623+104.424+189.668+104.725+189.58C105.025+189.492+105.254+189.295+105.412+188.989C105.512+188.795+105.55+188.577+105.528+188.337C105.505+188.097+105.392+187.816+105.188+187.494L104.64+186.649C104.227+186.05+103.967+185.526+103.858+185.078C103.749+184.629+103.804+184.194+104.021+183.773C104.288+183.254+104.692+182.924+105.235+182.781C105.777+182.639+106.328+182.712+106.888+183C107.133+183.127+107.379+183.312+107.626+183.556C107.872+183.8+108.014+183.932+108.051+183.951C108.134+183.994+108.2+184.013+108.249+184.009C108.298+184.005+108.35+183.985+108.404+183.948L108.57+184.034L107.621+185.997L107.406+185.886C107.544+185.389+107.599+184.975+107.571+184.644C107.522+184.033+107.227+183.588+106.685+183.309C106.361+183.142+106.055+183.11+105.767+183.214C105.48+183.318+105.267+183.504+105.128+183.772C104.909+184.198+105.033+184.743+105.5+185.405L106.163+186.37C106.872+187.416+107.044+188.295+106.676+189.008C106.395+189.554+105.96+189.895+105.371+190.031C104.782+190.168+104.157+190.065+103.495+189.724C103.217+189.581+102.926+189.373+102.622+189.099C102.318+188.825+102.133+188.671+102.068+188.638C102.013+188.609+101.954+188.604+101.892+188.622C101.83+188.64+101.773+188.67+101.722+188.714L101.541+188.621L102.697+186.378Z" opacity="1" fill="#000000"/>
<path d="M112.154+182.672C112.257+182.473+112.414+182.338+112.627+182.266C112.84+182.194+113.048+182.21+113.252+182.315C113.451+182.418+113.585+182.576+113.653+182.79C113.722+183.004+113.704+183.213+113.599+183.416C113.496+183.615+113.338+183.749+113.124+183.818C112.91+183.886+112.703+183.869+112.504+183.767C112.301+183.662+112.166+183.503+112.1+183.29C112.033+183.077+112.052+182.871+112.154+182.672ZM106.747+190.986C107.266+191.195+107.622+191.272+107.815+191.216C108.008+191.16+108.244+190.861+108.523+190.319L110.229+187.006C110.384+186.705+110.471+186.486+110.489+186.349C110.517+186.123+110.42+185.953+110.198+185.839C110.147+185.813+110.095+185.792+110.041+185.776C109.988+185.76+109.829+185.725+109.564+185.67L109.675+185.455L110.024+185.512C110.97+185.665+111.637+185.757+112.026+185.787C112.184+185.799+112.282+185.814+112.319+185.833C112.311+185.87+112.298+185.907+112.279+185.944L109.71+190.931C109.439+191.459+109.332+191.823+109.39+192.022C109.448+192.222+109.692+192.456+110.122+192.725L110.022+192.919L106.647+191.181L106.747+190.986Z" opacity="1" fill="#000000"/>
<path d="M117.238+188.533L116.98+189.033L115.563+188.304L113.489+192.297C113.307+192.649+113.2+192.931+113.168+193.142C113.114+193.519+113.249+193.791+113.574+193.958C113.74+194.044+113.905+194.079+114.068+194.063C114.232+194.048+114.436+193.995+114.682+193.905L114.784+194.15L114.524+194.28C114.116+194.48+113.743+194.578+113.405+194.574C113.068+194.57+112.774+194.504+112.524+194.375C111.977+194.093+111.732+193.66+111.788+193.073C111.818+192.754+111.953+192.361+112.194+191.894L114.362+187.685L113.605+187.295C113.589+187.269+113.578+187.246+113.574+187.226C113.57+187.206+113.573+187.185+113.585+187.162C113.609+187.116+113.638+187.085+113.672+187.07C113.706+187.056+113.802+187.03+113.961+186.995C114.417+186.896+114.757+186.8+114.983+186.709C115.209+186.617+115.765+186.354+116.651+185.92C116.711+185.951+116.744+185.974+116.751+185.989C116.758+186.004+116.746+186.042+116.715+186.102L115.835+187.811L117.238+188.533Z" opacity="1" fill="#000000"/>
<path d="M120.058+186.743C120.16+186.544+120.318+186.409+120.531+186.337C120.744+186.265+120.952+186.281+121.156+186.386C121.355+186.489+121.489+186.647+121.557+186.861C121.626+187.075+121.607+187.284+121.502+187.487C121.4+187.687+121.242+187.82+121.028+187.889C120.814+187.957+120.607+187.94+120.408+187.838C120.204+187.733+120.069+187.574+120.003+187.361C119.937+187.148+119.955+186.942+120.058+186.743ZM114.651+195.057C115.17+195.266+115.526+195.343+115.719+195.287C115.912+195.231+116.148+194.932+116.427+194.39L118.133+191.077C118.288+190.776+118.375+190.557+118.392+190.42C118.421+190.195+118.324+190.024+118.102+189.91C118.051+189.884+117.999+189.863+117.945+189.847C117.892+189.831+117.733+189.796+117.468+189.742L117.579+189.526L117.927+189.583C118.874+189.736+119.541+189.828+119.93+189.859C120.088+189.87+120.186+189.885+120.223+189.904C120.215+189.941+120.202+189.978+120.183+190.015L117.614+195.002C117.342+195.53+117.235+195.894+117.294+196.094C117.352+196.293+117.596+196.528+118.026+196.796L117.926+196.99L114.55+195.252L114.651+195.057Z" opacity="1" fill="#000000"/>
<path d="M120.246+194.108C120.72+193.186+121.414+192.558+122.328+192.223C123.242+191.888+124.159+191.958+125.081+192.433C125.997+192.905+126.602+193.597+126.893+194.509C127.185+195.421+127.074+196.377+126.559+197.377C126.084+198.298+125.38+198.949+124.446+199.329C123.512+199.71+122.582+199.661+121.656+199.184C120.767+198.726+120.182+198.012+119.903+197.042C119.623+196.072+119.738+195.094+120.246+194.108ZM124.671+192.749C124.306+192.561+123.926+192.518+123.534+192.62C122.854+192.803+122.248+193.411+121.716+194.443C121.291+195.267+121.082+196.132+121.087+197.037C121.093+197.942+121.427+198.565+122.089+198.906C122.607+199.173+123.129+199.141+123.655+198.808C124.181+198.475+124.643+197.922+125.041+197.149C125.454+196.348+125.664+195.502+125.673+194.61C125.681+193.718+125.347+193.097+124.671+192.749Z" opacity="1" fill="#000000"/>
<path d="M125.694+200.745C126.044+200.873+126.316+200.91+126.512+200.855C126.707+200.8+126.914+200.56+127.133+200.134L128.947+196.613C129.1+196.316+129.179+196.094+129.186+195.945C129.189+195.723+129.053+195.542+128.78+195.402C128.738+195.38+128.694+195.36+128.648+195.342C128.602+195.324+128.544+195.303+128.474+195.279L128.599+195.036C128.818+195.078+129.341+195.166+130.168+195.299L130.932+195.42C130.965+195.437+130.978+195.459+130.973+195.486C130.968+195.512+130.955+195.547+130.934+195.588L130.408+196.609C131.039+196.43+131.513+196.329+131.83+196.305C132.308+196.264+132.742+196.344+133.13+196.544C133.445+196.706+133.686+196.944+133.852+197.258C134.171+197.868+134.098+198.624+133.633+199.527L131.962+202.77C131.79+203.104+131.734+203.379+131.791+203.597C131.849+203.814+132.035+204.006+132.347+204.173L132.247+204.367L129.281+202.84L129.381+202.645C129.743+202.773+130.028+202.801+130.235+202.729C130.442+202.657+130.667+202.385+130.91+201.912L132.438+198.947C132.643+198.548+132.739+198.18+132.725+197.842C132.712+197.505+132.506+197.233+132.108+197.028C131.835+196.887+131.509+196.837+131.131+196.876C130.919+196.902+130.625+196.973+130.248+197.089L128.245+200.979C128.073+201.312+128.032+201.574+128.122+201.763C128.212+201.953+128.414+202.135+128.729+202.309L128.628+202.503L125.593+200.94L125.694+200.745Z" opacity="1" fill="#000000"/>
<path d="M138.546+195.704L141.539+197.246L141.364+197.586L140.1+196.935C139.822+196.792+139.589+196.783+139.402+196.909C139.298+196.973+139.205+197.086+139.121+197.248L134.195+206.812C134.086+207.025+134.035+207.198+134.042+207.331C134.051+207.564+134.206+207.758+134.507+207.913L135.722+208.539L135.536+208.9L132.543+207.358L138.546+195.704Z" opacity="1" fill="#000000"/>
<path d="M140.721+208.407C141.401+208.757+142.061+208.625+142.699+208.011C143.338+207.397+144.021+206.384+144.749+204.971C145.328+203.846+145.714+202.909+145.907+202.159C146.264+200.761+146.049+199.859+145.262+199.453C144.475+199.048+143.604+199.414+142.649+200.551C142.144+201.157+141.602+202.021+141.025+203.141C140.483+204.192+140.129+205.073+139.962+205.784C139.653+207.113+139.906+207.987+140.721+208.407ZM145.49+199.096C146.555+199.645+147.094+200.628+147.107+202.047C147.11+203.191+146.809+204.349+146.206+205.52C145.731+206.441+145.141+207.236+144.434+207.903C143.103+209.156+141.77+209.44+140.437+208.753C139.525+208.283+138.988+207.482+138.827+206.35C138.653+205.142+138.957+203.778+139.739+202.259C140.354+201.065+141.095+200.145+141.96+199.501C143.132+198.623+144.309+198.488+145.49+199.096Z" opacity="1" fill="#000000"/>
<path d="M146.614+214.606L143.614+213.061L143.793+212.713L145.064+213.368C145.337+213.509+145.568+213.52+145.759+213.401C145.857+213.335+145.948+213.22+146.032+213.058L150.961+203.488C151.078+203.261+151.126+203.058+151.103+202.88C151.081+202.701+150.931+202.54+150.653+202.397L149.431+201.768L149.617+201.407L152.617+202.952L146.614+214.606Z" opacity="1" fill="#000000"/>
</g>
<g opacity="1">
<path d="M96.119+145.51C96.3871+145.778+96.6793+145.937+96.9954+145.987C97.3114+146.037+97.6359+145.987+97.9687+145.838C98.4823+145.609+98.8066+145.157+98.9419+144.483C99.0771+143.81+98.9407+143.016+98.5326+142.103C98.1414+141.228+97.6602+140.659+97.0887+140.395C96.5173+140.132+95.9819+140.111+95.4827+140.335C95.1308+140.492+94.8582+140.744+94.6649+141.09C94.4716+141.436+94.4217+141.713+94.5152+141.922L96.119+145.51ZM95.7544+150.782C96.1886+150.554+96.4302+150.331+96.4792+150.116C96.5282+149.9+96.4751+149.618+96.3199+149.271L93.259+142.424C93.0974+142.063+92.9498+141.851+92.8162+141.788C92.6825+141.725+92.4944+141.748+92.2519+141.856C92.1996+141.879+92.152+141.904+92.1089+141.928C92.0659+141.953+92.0047+141.992+91.9255+142.045L91.8203+141.809L92.399+141.285C92.4207+141.27+92.8252+140.892+93.6126+140.152C93.6364+140.142+93.659+140.144+93.6804+140.16C93.7019+140.177+93.719+140.199+93.7318+140.227L94.1622+141.19C94.3357+140.736+94.5073+140.38+94.6771+140.121C94.986+139.664+95.3663+139.334+95.818+139.132C96.4741+138.839+97.1637+138.866+97.8865+139.213C98.6094+139.56+99.1876+140.219+99.6213+141.189C100.046+142.14+100.148+143.13+99.9264+144.159C99.7047+145.188+99.1635+145.895+98.3029+146.279C98.0366+146.398+97.7911+146.468+97.5664+146.489C97.2174+146.525+96.8551+146.467+96.4793+146.316L97.5219+148.648C97.7366+149.128+97.9468+149.388+98.1526+149.427C98.3584+149.467+98.7337+149.387+99.2785+149.189L99.3901+149.439L95.8597+151.017L95.7544+150.782Z" opacity="1" fill="#000000"/>
<path d="M100.568+141.125C100.145+140.179+100.088+139.244+100.398+138.321C100.707+137.399+101.335+136.726+102.281+136.303C103.222+135.882+104.14+135.843+105.035+136.184C105.929+136.526+106.606+137.211+107.065+138.238C107.488+139.184+107.556+140.14+107.27+141.107C106.983+142.074+106.364+142.77+105.413+143.195C104.5+143.603+103.578+143.613+102.646+143.226C101.713+142.838+101.021+142.138+100.568+141.125ZM102.272+136.82C101.897+136.988+101.626+137.257+101.461+137.628C101.179+138.273+101.275+139.126+101.749+140.186C102.127+141.033+102.672+141.736+103.382+142.297C104.092+142.859+104.787+142.987+105.467+142.683C105.999+142.445+106.3+142.017+106.369+141.399C106.437+140.78+106.294+140.074+105.939+139.28C105.572+138.457+105.042+137.764+104.351+137.2C103.659+136.637+102.967+136.51+102.272+136.82Z" opacity="1" fill="#000000"/>
<path d="M108.732+138.75L108.967+138.645C109.319+139.138+109.652+139.488+109.967+139.696C110.538+140.079+111.145+140.128+111.787+139.841C112.143+139.681+112.381+139.457+112.5+139.167C112.618+138.877+112.607+138.575+112.467+138.262C112.378+138.062+112.232+137.896+112.03+137.764C111.829+137.631+111.539+137.544+111.16+137.502L110.158+137.403C109.432+137.35+108.861+137.227+108.443+137.031C108.024+136.836+107.719+136.522+107.525+136.089C107.287+135.557+107.282+135.034+107.509+134.522C107.736+134.009+108.138+133.625+108.713+133.367C108.965+133.255+109.263+133.179+109.608+133.139C109.952+133.099+110.143+133.07+110.181+133.053C110.267+133.015+110.324+132.976+110.351+132.935C110.378+132.894+110.395+132.841+110.4+132.776L110.571+132.699L111.51+134.667L111.289+134.766C110.988+134.347+110.699+134.046+110.423+133.861C109.915+133.517+109.384+133.47+108.827+133.719C108.494+133.867+108.279+134.087+108.18+134.376C108.081+134.666+108.093+134.948+108.217+135.224C108.412+135.661+108.915+135.905+109.724+135.954L110.892+136.039C112.151+136.138+112.944+136.553+113.272+137.286C113.522+137.847+113.517+138.4+113.256+138.944C112.994+139.489+112.524+139.913+111.844+140.217C111.559+140.345+111.214+140.442+110.81+140.508C110.406+140.575+110.171+140.623+110.104+140.653C110.047+140.678+110.006+140.721+109.982+140.78C109.957+140.84+109.945+140.903+109.947+140.971L109.762+141.054L108.732+138.75Z" opacity="1" fill="#000000"/>
<path d="M111.747+129.05C111.655+128.846+111.648+128.638+111.725+128.427C111.801+128.216+111.944+128.063+112.154+127.97C112.358+127.879+112.565+127.873+112.775+127.953C112.985+128.033+113.137+128.178+113.23+128.387C113.321+128.592+113.327+128.799+113.247+129.009C113.167+129.219+113.024+129.369+112.82+129.461C112.611+129.554+112.402+129.56+112.195+129.479C111.987+129.398+111.838+129.255+111.747+129.05ZM114.861+138.467C115.348+138.192+115.63+137.961+115.707+137.776C115.784+137.59+115.698+137.219+115.449+136.663L113.928+133.261C113.79+132.952+113.673+132.747+113.577+132.648C113.419+132.485+113.225+132.454+112.997+132.556C112.945+132.58+112.896+132.607+112.85+132.639C112.805+132.671+112.678+132.773+112.47+132.946L112.371+132.725L112.633+132.488C113.344+131.845+113.833+131.381+114.099+131.097C114.207+130.98+114.279+130.913+114.318+130.896C114.342+130.925+114.363+130.959+114.38+130.997L116.669+136.118C116.911+136.66+117.129+136.971+117.321+137.05C117.513+137.129+117.849+137.085+118.327+136.917L118.416+137.117L114.95+138.666L114.861+138.467Z" opacity="1" fill="#000000"/>
<path d="M119.499+128.742L119.729+129.256L118.274+129.906L120.096+134.021C120.257+134.382+120.411+134.642+120.555+134.8C120.816+135.077+121.113+135.141+121.446+134.992C121.617+134.916+121.747+134.809+121.837+134.672C121.927+134.534+122.014+134.342+122.097+134.094L122.352+134.168L122.291+134.452C122.193+134.895+122.036+135.247+121.822+135.509C121.608+135.77+121.372+135.958+121.116+136.072C120.555+136.323+120.063+136.244+119.64+135.834C119.409+135.612+119.187+135.26+118.972+134.78L117.04+130.458L116.262+130.806C116.232+130.802+116.208+130.796+116.19+130.787C116.171+130.778+116.157+130.761+116.146+130.738C116.125+130.69+116.119+130.648+116.129+130.613C116.139+130.577+116.179+130.486+116.251+130.34C116.458+129.922+116.596+129.597+116.666+129.363C116.735+129.129+116.877+128.531+117.091+127.568C117.153+127.54+117.192+127.529+117.208+127.533C117.224+127.537+117.246+127.57+117.274+127.632L118.058+129.387L119.499+128.742Z" opacity="1" fill="#000000"/>
<path d="M119.863+125.422C119.772+125.217+119.764+125.01+119.841+124.799C119.918+124.587+120.061+124.435+120.27+124.341C120.475+124.25+120.682+124.244+120.892+124.325C121.101+124.405+121.253+124.55+121.347+124.759C121.438+124.963+121.444+125.17+121.363+125.38C121.283+125.59+121.141+125.741+120.936+125.832C120.727+125.926+120.519+125.932+120.311+125.851C120.104+125.769+119.954+125.626+119.863+125.422ZM122.977+134.838C123.465+134.563+123.747+134.333+123.824+134.147C123.9+133.962+123.814+133.591+123.566+133.035L122.045+129.632C121.907+129.323+121.79+129.119+121.694+129.019C121.535+128.856+121.342+128.826+121.114+128.928C121.061+128.951+121.012+128.979+120.967+129.011C120.921+129.042+120.794+129.145+120.586+129.318L120.487+129.096L120.749+128.86C121.46+128.216+121.949+127.753+122.216+127.468C122.323+127.352+122.396+127.285+122.434+127.268C122.458+127.297+122.479+127.33+122.496+127.368L124.785+132.489C125.028+133.031+125.245+133.342+125.437+133.422C125.63+133.501+125.965+133.457+126.443+133.289L126.533+133.488L123.066+135.038L122.977+134.838Z" opacity="1" fill="#000000"/>
<path d="M125.731+129.876C125.308+128.93+125.251+127.995+125.56+127.073C125.869+126.15+126.497+125.477+127.443+125.054C128.385+124.633+129.303+124.594+130.197+124.935C131.092+125.277+131.768+125.962+132.228+126.989C132.651+127.935+132.719+128.891+132.432+129.858C132.145+130.825+131.527+131.521+130.576+131.946C129.663+132.354+128.74+132.364+127.808+131.977C126.876+131.589+126.184+130.889+125.731+129.876ZM127.435+125.571C127.059+125.739+126.789+126.008+126.624+126.379C126.342+127.024+126.438+127.877+126.912+128.937C127.29+129.784+127.834+130.487+128.544+131.049C129.254+131.61+129.949+131.738+130.629+131.434C131.162+131.196+131.462+130.768+131.531+130.15C131.6+129.531+131.457+128.825+131.102+128.031C130.734+127.209+130.205+126.515+129.513+125.951C128.822+125.388+128.129+125.261+127.435+125.571Z" opacity="1" fill="#000000"/>
<path d="M134.317+129.768C134.636+129.575+134.835+129.385+134.914+129.198C134.993+129.011+134.935+128.699+134.739+128.262L133.123+124.646C132.987+124.342+132.863+124.14+132.75+124.042C132.579+123.902+132.353+123.895+132.073+124.02C132.03+124.039+131.987+124.061+131.944+124.086C131.901+124.111+131.848+124.143+131.786+124.182L131.674+123.933C131.844+123.789+132.239+123.435+132.86+122.872L133.432+122.351C133.465+122.336+133.491+122.339+133.509+122.36C133.526+122.38+133.545+122.412+133.564+122.455L134.033+123.503C134.287+122.899+134.504+122.465+134.683+122.203C134.95+121.804+135.283+121.515+135.683+121.337C136.006+121.192+136.342+121.153+136.691+121.219C137.366+121.351+137.911+121.881+138.326+122.808L139.815+126.139C139.968+126.481+140.147+126.697+140.353+126.788C140.559+126.878+140.825+126.854+141.15+126.714L141.239+126.914L138.194+128.275L138.105+128.075C138.431+127.873+138.63+127.668+138.703+127.461C138.776+127.255+138.704+126.909+138.487+126.424L137.126+123.378C136.943+122.969+136.716+122.665+136.443+122.464C136.171+122.263+135.83+122.254+135.422+122.437C135.141+122.563+134.898+122.785+134.693+123.105C134.58+123.287+134.452+123.561+134.308+123.928L136.093+127.922C136.247+128.264+136.425+128.46+136.629+128.508C136.834+128.557+137.102+128.512+137.434+128.375L137.524+128.575L134.407+129.968L134.317+129.768Z" opacity="1" fill="#000000"/>
<path d="M138.41+116.583L141.484+115.209L141.64+115.558L140.342+116.139C140.057+116.266+139.904+116.443+139.885+116.668C139.871+116.788+139.901+116.932+139.975+117.098L144.366+126.92C144.463+127.138+144.567+127.286+144.675+127.363C144.863+127.502+145.111+127.502+145.42+127.364L146.668+126.806L146.834+127.177L143.76+128.551L138.41+116.583Z" opacity="1" fill="#000000"/>
<path d="M146.252+112.915C146.281+112.93+146.3+112.943+146.308+112.954C146.315+112.965+146.329+112.992+146.348+113.034L150.187+121.622C150.35+121.988+150.552+122.177+150.792+122.19C151.031+122.202+151.422+122.099+151.963+121.88L152.052+122.08L148.029+123.878L147.934+123.664C148.496+123.379+148.837+123.132+148.955+122.925C149.074+122.718+149.037+122.401+148.846+121.973L145.894+115.368C145.792+115.14+145.686+114.979+145.575+114.886C145.465+114.792+145.315+114.788+145.125+114.873C145.001+114.929+144.856+115.035+144.69+115.192C144.523+115.349+144.371+115.504+144.234+115.657L144.145+115.457L146.166+112.953L146.252+112.915Z" opacity="1" fill="#000000"/>
<path d="M158.21+122.091L155.129+123.469L154.969+123.112L156.274+122.528C156.555+122.403+156.708+122.229+156.734+122.006C156.744+121.888+156.712+121.745+156.637+121.579L152.244+111.751C152.139+111.518+152.011+111.354+151.857+111.26C151.704+111.166+151.485+111.183+151.2+111.31L149.944+111.872L149.778+111.501L152.86+110.123L158.21+122.091Z" opacity="1" fill="#000000"/>
</g>
<path d="M160.964+104.531C160.964+101.366+163.406+98.8006+166.418+98.8006C169.43+98.8006+171.871+101.366+171.871+104.531C171.871+107.697+169.43+110.262+166.418+110.262C163.406+110.262+160.964+107.697+160.964+104.531Z" opacity="1" fill="#000000"/>
<g opacity="1">
<path d="M216.359+216.521L216.359+216.74C216.161+216.745+215.993+216.772+215.855+216.822C215.717+216.871+215.648+216.974+215.648+217.13C215.648+217.229+215.786+217.508+216.062+217.966C216.208+218.206+216.393+218.5+216.617+218.849C216.924+218.427+217.154+218.096+217.305+217.857C217.56+217.471+217.687+217.221+217.687+217.107C217.687+216.971+217.633+216.88+217.523+216.833C217.414+216.787+217.26+216.755+217.062+216.74L217.062+216.521L219.578+216.521L219.578+216.74C219.312+216.761+219.065+216.832+218.836+216.955C218.607+217.077+218.422+217.24+218.281+217.443L216.945+219.373L219.008+222.498C219.273+222.904+219.499+223.167+219.683+223.287C219.868+223.406+220.081+223.471+220.32+223.482L220.32+223.701L217.094+223.701L217.094+223.482L217.32+223.466C217.44+223.456+217.54+223.419+217.621+223.357C217.702+223.294+217.742+223.216+217.742+223.123C217.742+223.024+217.643+222.805+217.445+222.466C217.351+222.3+217.211+222.073+217.023+221.787C216.935+221.646+216.803+221.451+216.629+221.201C216.454+220.951+216.307+220.737+216.187+220.56L214.93+222.521C214.779+222.755+214.685+222.912+214.648+222.99C214.612+223.068+214.594+223.133+214.594+223.185C214.594+223.284+214.634+223.349+214.715+223.38C214.795+223.412+214.971+223.445+215.242+223.482L215.242+223.701L212.93+223.701L212.93+223.482C213.211+223.425+213.419+223.352+213.555+223.263C213.69+223.175+213.87+222.969+214.094+222.646L215.914+219.998L214.414+217.724C214.112+217.271+213.904+217.003+213.789+216.919C213.674+216.836+213.424+216.776+213.039+216.74L213.039+216.521L216.359+216.521Z" opacity="1" fill="#000000"/>
</g>
<g opacity="1">
<path d="M88.3978+11.6679L88.3978+11.8554L84.0618+18.3554L86.2728+18.3554C87.0384+18.3554+87.5228+18.2578+87.7259+18.0625C87.929+17.8671+88.1295+17.3893+88.3275+16.6289L88.6009+16.6835L88.3821+18.8476L82.3275+18.8476L82.3275+18.6679L86.6009+12.1445L84.5071+12.1445C83.9446+12.1445+83.5775+12.2408+83.4056+12.4335C83.2337+12.6263+83.1139+13.0013+83.0462+13.5585L82.7728+13.5585L82.804+11.6679L88.3978+11.6679Z" opacity="1" fill="#000000"/>
</g>
<g opacity="1">
<path d="M63.1163+162.865C63.1163+164.547+63.447+165.79+64.1085+166.595C64.77+167.4+65.5825+167.802+66.546+167.802C67.4887+167.802+68.2947+167.41+68.964+166.626C69.6332+165.843+69.9679+164.589+69.9679+162.865C69.9679+161.12+69.6293+159.859+68.9523+159.083C68.2752+158.307+67.4731+157.919+66.546+157.919C65.5877+157.919+64.7765+158.322+64.1124+159.126C63.4483+159.931+63.1163+161.177+63.1163+162.865ZM61.3038+162.865C61.3038+161.156+61.8403+159.787+62.9132+158.755C63.8976+157.813+65.1085+157.341+66.546+157.341C67.9887+157.341+69.2023+157.815+70.1866+158.763C71.2543+159.789+71.7882+161.156+71.7882+162.865C71.7882+164.599+71.2361+165.979+70.1319+167.005C69.1424+167.922+67.947+168.38+66.546+168.38C65.046+168.38+63.8012+167.872+62.8116+166.857C61.8064+165.82+61.3038+164.49+61.3038+162.865Z" opacity="1" fill="#000000"/>
</g>
</g>
</svg>
